<?xml version="1.0" encoding="UTF-8"?>
<!DOCTYPE svg  PUBLIC '-//W3C//DTD SVG 1.1//EN'  'http://www.w3.org/Graphics/SVG/1.1/DTD/svg11.dtd'>
<svg enable-background="new 0 0 1920 1473" version="1.1" viewBox="0 0 1920 1473" xml:space="preserve" xmlns="http://www.w3.org/2000/svg">

	<path d="m0 0h1920v1168.2c-5.65-0.0601-11.31 0.23-16.93-0.4-35.77-0.0801-71.56-0.01-107.33-0.0601 2.14-9.2899 4.36-18.56 6.64-27.81 0.79-3.28 1.77-6.54 1.88-9.92 0.1-38.12-0.14-76.24 0.11-114.35-7.6899-3.19-15.61-5.76-23.44-8.57 0.5 0.11 1.49 0.32 1.99 0.42-0.0701-2.14-0.12-4.26-0.16-6.38-4.86-3.45-10.56-5.7-15.05-9.6-0.52-6.15 0.04-12.34-0.22-18.5-5.29-4.59-11.42-8.21-16.34-13.18-1.01-9.91 0.09-19.94-0.4601-29.89 0.01-1.02-0.35-1.86-1.08-2.51-74.16-70.17-148.37-140.31-222.47-210.55-23.96-22.22-47.32-45.08-71.29-67.29 0.86-8.5-0.33-17.07-0.63-25.59-2.58-38.44-12.07-77.33-33.41-109.84-8.6901-13.08-19.94-25.09-34.42-31.68-8.5601-3.73-17.79-5.68-27.02-6.8-0.16-25.68-2.02-51.49-7.76-76.57-4.03-16.95-9.92-33.49-17.88-48.99-7.6699-14.8-17.4-28.96-30.7-39.26-11.85-9.48-27.1-13.21-41.92-14.6-0.9-23.5-3.4299-47.09-9.6899-69.81-5.3301-18.76-12.76-37.04-23.29-53.51-8.36-12.94-19-24.96-32.81-32.19-10.64-5.24-22.51-7.79-34.31-8.38-18.49-0.95-37.08 5.52-51.26 17.37-21.94 18.36-36.19 45.61-38.85 74.1-1.78 14.71 0.47 29.48-0.0701 44.23-0.34 10.06-0.7 20.17-2.1899 30.14-0.76 9.37-3.3201 18.48-3.99 27.88-4 37.02-0.5601 74.24 1.1899 111.28-16.15-0.1-32.3-0.15-48.45-0.03-0.1 25.96 0.21 51.93-0.14 77.88-9.93 0.44-19.91-0.5699-29.82 0.51-22.68-13.5-45.45-26.87-68.43-39.86-30.79-16.95-61.52-34.01-92.65-50.32-16.48-9.12-33.48-17.21-50.38-25.51-25.97-11.88-52.41-22.73-78.29-34.8-6.57-3.04-13.51-5.13-20.27-7.68-21.53-7.59-42.88-15.72-64.79-22.19-8.64-2.41-17-5.63-25.51-8.42-11.74-3.84-24.4-4.25-35.81-9.2-6.07-2.69-12.85-1.7-19.28-1.91-7-0.26-13.67 2.4-19.85 5.4-14.97 9.12-29.65 18.73-43.68 29.25-11.7 9.58-23.02 19.62-33.63 30.4-6.06 5.34-10.6 12.06-16.06 17.95-3.45 3.75-5.65 8.39-8.22 12.74-2.71 4.69-5.92 9.21-7.3 14.52-3.85 14.35-8.82 28.84-8.07 43.9 0.31 6.38-1.08 13.14 1.69 19.16 4.54 11.06 8.59 22.36 13.97 33.04 3.53 9.45 9.43 17.71 14.33 26.46 13.6 24.53 25.82 49.84 36.23 75.89 4.56 10.46 9.45 20.78 13.97 31.26 4.4 11.18 8.88 22.34 13.19 33.56 3.95 12.65 6.92 25.6 11.03 38.22 3.13 10.32 6.59 20.55 9.51 30.93 3.36 19.24 6.55 38.51 9.39 57.83 0.16 106.61 0.02 213.22 0.06 319.83-0.01 10.69-0.02 21.38-0.01 32.08-16.17-0.52-32.37 0.36-48.54-0.35-4.33 0.24-8.67 0.5699-13 0.08-13-0.2-26.03 0.76-39.04-0.1-7.35-0.38-14.69 0.88-22.03 0.08-7.98-0.25-15.98 0.29-23.96-0.2-7.01-0.46-14 1-20.99 0.1799-8.34-0.9199-16.68 0.9501-25-0.1-9.36-0.0399-18.73-0.2999-28.08 0.4-13.63-0.74-27.32-0.67-40.97-0.14-27.32-0.72-54.67-0.09-82.01-0.37-8.29 0.55-16.6 0.17-24.9 0.01-8.35 0.59-16.7-0.16-25.06 0.02-32.01-0.05-64.02-0.01-96.03-0.03-10-0.14-19.98 0.12-29.96 0.54v-1168.3z" fill="#ADC5C6" stroke="#ADC5C6" stroke-width=".0938"/>
	<path d="m1701.5 931.31c0.51-0.03 1.5399-0.11 2.0599-0.14l-0.16 0.65c-1.1 3.63-0.6899 7.44-0.6299 11.18-2.57-3.2-0.6201-7.89-1.27-11.69z" fill="#ADC5C6" stroke="#ADC5C6" stroke-width=".0938"/>
	<path d="m1729.2 950.09c0.59 0.69 1.1801 1.39 1.78 2.12 0.48 3.21 0.4 6.46 0.27 9.7-0.7301-0.5699-1.39-1.16-2-1.79-0.13-3.35-0.03-6.69-0.05-10.03z" fill="#ADC5C6" stroke="#ADC5C6" stroke-width=".0938"/>
	<path d="m1735.4 955.41c0.7001 0.23 1.4601 0.5 2.2201 0.79-1.3201 3.12-1.02 6.54-0.6801 9.83-2.8299-2.69-0.8999-7.18-1.54-10.62z" fill="#ADC5C6" stroke="#ADC5C6" stroke-width=".0938"/>
	<path d="m1744.7 962.21c0.92 0.37 1.87 0.75 2.84 1.14l-0.0499 0.27c-0.59 2.82-0.8301 5.7-0.88 8.59-0.49-0.3-1.48-0.89-1.97-1.19 0.0599-2.94 0.1799-5.88 0.0599-8.81z" fill="#ADC5C6" stroke="#ADC5C6" stroke-width=".0938"/>
	<path d="m1754.2 968.08c0.9501 0.36 1.5901 1.03 1.89 2 0.51 3.4-1.11 8.08 2.65 10.05 0.11-2.69 0.17-5.38 0.23-8.06 0.8 0.44 1.62 0.89 2.4701 1.35l-0.04 0.33c-0.39 2.67-0.46 5.38-0.2001 8.09-2.75-0.98-5.3999-2.22-7.71-4.01l0.41-0.77c0.12-0.22 0.34-0.67 0.46-0.89 0.22-2.7 0.1401-5.41-0.16-8.09z" fill="#ADC5C6" stroke="#ADC5C6" stroke-width=".0938"/>
	<path d="m1110.8 149.74c14.18-11.85 32.77-18.32 51.26-17.37 11.8 0.59 23.67 3.14 34.31 8.38 13.81 7.23 24.45 19.25 32.81 32.19 10.53 16.47 17.96 34.75 23.29 53.51 6.26 22.72 8.7899 46.31 9.6899 69.81 14.82 1.39 30.07 5.12 41.92 14.6 13.3 10.3 23.03 24.46 30.7 39.26 7.96 15.5 13.85 32.04 17.88 48.99 5.74 25.08 7.6 50.89 7.76 76.57 9.23 1.12 18.46 3.07 27.02 6.8 14.48 6.59 25.73 18.6 34.42 31.68 21.34 32.51 30.83 71.4 33.41 109.84 0.3 8.52 1.49 17.09 0.63 25.59-18.01-17.31-36.29-34.32-54.35-51.56 0.04-13.82 0.03-27.64 0-41.46-14.75-13.67-29.46-27.38-44.11-41.15-9.4301-1-18.93-0.73-28.38-0.27-7.22-0.63-14.45-0.01-21.67-0.47 14.85 0.11 29.7-0.01 44.55 0.01-2.8-18.74-8.58-37.04-16.71-54.15-7.77-15.86-18.48-30.37-31.76-42.04-11.9-10.01-27.69-14.89-43.15-14.15 0.0499 1.24 0.11 2.48 0.1899 3.74-1.34-5.92-0.77-12.03-1.6-18-1.39-20.52-4.04-41.06-9.5499-60.92-5.51-20.74-14.65-40.67-27.79-57.71-8.53-10.43-18.18-20.63-30.84-25.92-12.68-5.6-27.17-6.36-40.64-3.5-16.89 3.27-32.07 12.09-45.66 22.32-13.71 10.5-26.75 22.81-34.24 38.64-0.1801-1.6-0.34-3.2-0.5-4.79 1.49-9.97 1.85-20.08 2.1899-30.14 0.54-14.75-1.71-29.52 0.0701-44.23 2.6603-28.49 16.91-55.74 38.85-74.1z" stroke="#000" stroke-width=".0938"/>
	<path d="m507.9 430.08c3.83-1.16 7.87-0.93 11.82-0.72-0.18 112.86-0.0099 225.73-0.0699 338.6-0.09 16.13 0.16 32.26-0.13 48.39-2.84-19.32-6.03-38.59-9.39-57.83-2.92-10.38-6.38-20.61-9.51-30.93-4.11-12.62-7.08-25.57-11.03-38.22-4.31-11.22-8.79-22.38-13.19-33.56-4.52-10.48-9.41-20.8-13.97-31.26-10.41-26.05-22.63-51.36-36.23-75.89-4.9-8.75-10.8-17.01-14.33-26.46 6.1-10.01 12.09-20.09 18.11-30.14 3.16-5.38 7.14-10.19 10.86-15.16 5.67-7.31 11.39-14.62 17.9-21.2 6.33-5.95 14.1-10.05 21.68-14.16 8.8299-4.54 17.9-8.78 27.48-11.46z" stroke="#000" stroke-width=".0938"/>
	<path d="m519.58 1136.2c11.83 2.9199 23.58 6.1399 35.39 9.1599 8.47 1.54 17.07 2.1901 25.6 3.39 24.47 3.35 49.15 5.38 73.41 10.14 19.68 3.41 39.33 6.95 59.02 10.31 12.82 1.4099 25.68 2.47 38.54 3.5599 47.45 4.62 94.97 8.47 142.49 12.31 51.08 3.6899 102.01 9.13 152.98 14.12 32.65 0.13 65.31 0.0199 97.97 0.0599 10.66 0.0601 21.34-0.26 31.99 0.67 38.66 2.74 77.32 5.4199 115.98 8.15 9.64 0.9099 19.33 0.6399 29 0.6899 154.08-0.02 308.17-0.03 462.26-0.03-1.6899 6.03-3.25 12.11-5.4199 18-107.27 0.1801-214.54 0.02-321.8 0.0801-109 0.1699-217.99-0.0601-327 0.01-203.34-0.15-406.69 0.1399-610.04-0.0801-0.82-19.47-0.04-38.98-0.38-58.46-0.0102-10.7-2e-4 -21.39 0.0098-32.08z" stroke="#000" stroke-width=".0938"/>
	<path d="m1150 242.04c13.47-2.86 27.96-2.1 40.64 3.5 12.66 5.29 22.31 15.49 30.84 25.92 13.14 17.04 22.28 36.97 27.79 57.71 5.5099 19.86 8.1599 40.4 9.5499 60.92 0.83 5.97 0.26 12.08 1.6 18-0.08-1.26-0.14-2.5-0.1899-3.74 15.46-0.74 31.25 4.14 43.15 14.15 13.28 11.67 23.99 26.18 31.76 42.04 8.13 17.11 13.91 35.41 16.71 54.15-14.85-0.02-29.7 0.1-44.55-0.01l-0.36 0.03c-19.51-18.34-38.49-37.25-57.82-55.78-7.53-7.11-14.63-14.69-22.45-21.47-53.29-0.12-106.58 0.06-159.87-0.09-1.75-37.04-5.1899-74.26-1.1899-111.28 0.6699-9.4 3.23-18.51 3.99-27.88 0.16 1.59 0.3199 3.19 0.5 4.79 7.49-15.83 20.53-28.14 34.24-38.64 13.59-10.23 28.77-19.05 45.66-22.32z" fill="#BD2525" stroke="#BD2525" stroke-width=".0938"/>
	<path d="m1739.1 1181.2c-0.2799-0.01-0.86-0.01-1.14-0.01-0.1899-0.88-0.46-1.6899-0.8099-2.4399 0.77-1.79 1.35-3.67 1.86-5.55 0.9499 2.5999 1.43 5.4099 0.0899 7.9999zm-31.8-12.08c0.1699 2.1899 0.22 4.4 0.0299 6.62-0.49 0.45-0.95 0.9299-1.37 1.4399-0.3999-0.5299-0.7799-1.0399-1.12-1.5299-0.08-1.27-0.13-2.52-0.13-3.7401 1.4301-0.3199 1.9601-1.6298 2.5901-2.7899zm-12.4-1.69c0.4 0.5801 0.8199 1.17 1.27 1.78-0.03 1.1901-0.04 2.4-0.02 3.63-0.78 0.92-1.53 1.87-2.26 2.84-0.5699-2.83-0.5-5.73 1.01-8.25zm-11.35 0.06c-0.04 1.61-0.0601 3.24-0.0701 4.89-0.5399 0.08-1.63 0.26-2.1699 0.34 0.0499-1.76 0.12-3.51 0.22-5.24 0.5 0 1.52 0 2.02 0.01zm-13.41 3.93c-0.84 0-1.65 0.01-2.4401 0.04 0.1801-2.26-0.5399-4.88 1-6.78 3.7101-0.05 2.1001 4.59 1.4401 6.74zm-13.06-8.47c0.51 1.9501 0.29 3.99 0.3101 6.01-1.01 0.49-1.95 1.04-2.87 1.63-0.02-2.16-0.23-4.35 0.25-6.45 0.26-0.97 1.32-1.95 2.3099-1.19zm-14.37-0.74c-0.09 1.78-0.1499 3.58-0.1899 5.38-0.96-0.04-1.89-0.0699-2.8-0.08 0.02-1.67 0.04-3.3401 0.0901-4.99 0.9398-0.1199 1.9098-0.22 2.8998-0.31zm-15.56-4.14c1.01 2.4401 1.53 5.0601 0.4299 7.59-0.5699-0.0199-1.7-0.0499-2.2599-0.0699-0.14-2.6701 0.3-5.3002 1.83-7.5201zm-14.73-0.45c0.2899 2.23 0.0399 4.48-0.12 6.73-0.9-0.03-1.78-0.04-2.64-0.02 0.1699-2.31-1.29-8.09 2.76-6.71zm-16.03-3.02c0.1801 2.64 0.24 5.36-0.9301 7.8099-0.47 0-1.4199 0.01-1.8899 0.01-0.15-2.59-0.0901-5.1599 0.1899-7.71 0.8601-0.0399 1.7401-0.0799 2.6301-0.1099zm-16.83-2.0601c0.01 1.9601 0.0299 3.9301 0.0699 5.92-1.1801 0.11-2.33 0.24-3.48 0.37 0.13-2.1 0.3099-4.1899 0.51-6.27 0.9501-0.02 1.92-0.0298 2.9001-0.02zm-17.91-2.2598c0 2.36-0.03 4.74-0.12 7.12-1.05 0.0399-2.0801 0.09-3.1 0.1499-0.0701-2.38-0.0701-4.75 0-7.1 1.06-0.07 2.13-0.13 3.22-0.1699zm-17.98-1.8301c-0.12 2.11-0.5 4.21-1.27 6.2001-1.04-0.04-2.05-0.0801-3.05-0.1001 0.0801-1.8999 0.11-3.7999 0.4701-5.6499 0.9299-1.12 2.5799-0.2701 3.8499-0.4501zm-19.99-3.12c-0.02 2.03 0.1599 4.1-0.2001 6.13-0.49 1.15-2.03 0.9401-2.99 1.4-1.13-2.4501-0.6699-5.04 0.0701-7.5 1.03-0.02 2.06-0.03 3.12-0.03zm-22.99-3.11c5.0699-0.0601 2.6699 6.65 0.3199 8.8-2.3-2.2-2.28-6.43-0.3199-8.8zm-19.12-2.9399c1.0699 3.0599 1.0199 8.34-3.2101 8.6-1.16-2.75-0.9-5.7201 0.17-8.4301 1-0.07 2.01-0.13 3.0401-0.1699zm-22.69-3.5301c0.4401 0.45 0.9 0.9199 1.38 1.4 0.27 2.8899-0.66 5.6-2.13 8.0599-0.73-0.04-1.4399-0.05-2.11-0.04-0.6801-1.1899-1.38-2.38-2.03-3.5299 0.6-2.11 1.41-4.14 2.7001-5.92 0.5499 0.01 1.6398 0.02 2.1899 0.03zm-22.57-0.88c0.33 2.53-0.05 7.08-3.55 6.87-2.0699-1.92-1.51-5.3301-0.58-7.65 0.74-1.67 4-1.35 4.13 0.78zm-27.58-5.5899c4.25-0.64 2.65 4.4299 2.98 7.0199-1.0299 1.24-2.25 2.26-3.8899 2.51-1.9501-3-1.8101-7.04 0.9099-9.5299zm-25.82-3.6501c1.5699-0.89 2.8199 1 3.1799 2.2999 0.8 3.05-0.71 6.13-3.0199 8.0901-0.89-0.99-1.77-1.9501-2.64-2.9-0.19-2.74 0.55-5.48 2.48-7.49zm-24.33-3.39c0.0701 2.34 0.15 4.6899 0.2401 7.0499-0.91 1.52-2.2001 2.9801-4.1801 2.17-2.2599-3.2799-1.3399-10.4 3.94-9.2199zm-28.06-3.93c0.16 3.1801 0.53 6.53-0.96 9.49-1.01-0.1-3.02-0.2899-4.02-0.39 0.1799-2.96-1.4-7.59 2.2999-8.9099 0.6701-0.0501 2.0101-0.1401 2.6801-0.1901zm-29.66-3.0201c1.6 2.4 0.5601 5.42-0.4299 7.87-0.64 0.41-1.9301 1.2301-2.5801 1.64-3.0699-1.98-2.84-6.23-1.33-9.11 0.51-1.9 3.5599-2.0398 4.34-0.4zm449.35-0.8299c-0.0399 1.54-0.0499 3.1-0.0299 4.67-0.9501 0.09-1.87 0.2-2.76 0.33 0.09-1.63 0.22-3.25 0.34-4.86 0.7899-0.0601 1.6099-0.11 2.4499-0.14zm-480.63-4.44c1.54 3.1 1.25 6.6899-0.1599 9.7899-1.66 0.1-3.23-0.13-4.7001-0.6799-0.64-2.0901-0.3199-4.3-0.4199-6.4301 1.3-1.6899 3.0299-2.8799 5.2799-2.6799zm470.45 2.99c1.02 2.39-1.98 3.1499-3.28 4.46 0.04-1.09 0.12-2.17 0.23-3.24 1.15-1.49 1.73-3.25 2-5.09 0.33 1.28 0.77 2.55 1.05 3.87zm-502.31-6.8501c0 3 0.4701 6.14-0.48 9.0601-1.59 0.41-3.2 0.55-4.83 0.42-0.23-3.0801-0.2101-6.16 0.09-9.2101 1.72-0.1199 3.47-0.2099 5.22-0.27zm491.59 0.0501c0.24 2.46 0.6699 5.09-1.12 7.12-0.41 0.03-1.2301 0.09-1.63 0.12 0.0699-1.08 0.1799-2.14 0.3099-3.1899 1.0101-1.2202 1.7601-2.6201 2.4401-4.0501zm-9.7399-1.77c-0.1901 1.0701-0.3501 2.15-0.4901 3.25-0.8999 1.3-1.6699 2.6901-2.4099 4.0901-0.2201-2.3701-0.24-4.7401 0.01-7.0901 0.9299-0.1 1.8998-0.18 2.89-0.25zm-516.12-3.22c1.8101 3.39 1.4301 7.58-1.09 10.51-0.9199-0.04-2.77-0.12-3.6899-0.16-1.38-2.76-1.73-6.13-0.1901-8.89 0.7501-2.08 3.3101-1.1499 4.97-1.46zm503.71-1.89c0.84 2.58 1.26 5.34-0.03 7.88-0.8199 0-1.61 0.01-2.36 0.05-0.02-0.4601-0.05-1.38-0.0601-1.8401l-1.21 0.42c1.4901-2.0099 2.5702-4.2699 3.6601-6.5099zm-10.88-1.76c-0.0701 1.8301-0.11 3.6801-0.14 5.54-1.2 0.1-2.39 0.2-3.53 0.34 0.0601-1.13 0.13-2.24 0.27-3.33 0.75-0.8301 1.4-1.74 1.96-2.7101 0.3599 0.0401 1.08 0.1202 1.44 0.1601zm-528.58-1.51c1.91 3.98 1.7101 9.64-2.7 11.85-4.63-2.36-3.75-7.7899-1.42-11.52 1.0301-0.0801 3.0901-0.24 4.12-0.3301zm515.69-3.79c0.1 2.0199 0.13 4.0599 0.1 6.1-0.98 0.7-1.9 1.4399-2.84 2.1699-0.67-3.1899 0.44-6.0499 2.74-8.2699zm-552.15-0.67c1.3 2.8099 0.9301 5.84 0.21 8.76-1.36 0.99-2.6799 2.49-4.5499 2.03-0.91-0.67-1.78-1.36-2.61-2.0701-0.15-3.25-0.12-6.6699 2.2999-9.14 1.53 0.1301 3.08 0.2701 4.65 0.4201zm539.88-3.18c0.21 1.29-0.41 3.0901 1.25 3.7001-0.4399 0.11-1.33 0.3099-1.77 0.41-0.5699 1.6699-1.09 3.34-1.59 5.0399-0.1899-0.63-0.36-1.24-0.5-1.83-0.5601-0.47-1.09-0.92-1.6-1.36 0.4199-2.61 1.99-4.63 4.21-5.96zm-582.16-3.3899c1.7201 1.0099 3.29 2.2699 4.6901 3.72 0.13 2.85-0.72 5.53-2.4 7.83-1.58 0.05-3.15 0.12-4.71 0.22-2.3201-3.8501-1.7301-9.4201 2.4199-11.77zm568.37-0.3201c0.4701 2.87 0.1801 6.25-3 7.35-0.0399-2.45 0.15-4.89 0.4401-7.3099 0.84-0.0101 1.69-0.0201 2.5599-0.0401zm-13.6-3.27c-0.27 1.99-0.9 3.91-1.59 5.8-0.5 0.15-1.5 0.4299-1.99 0.58-0.76-2.14 0.03-4.2899 0.49-6.37 1.01-0.01 2.04-0.02 3.09-0.01zm-593.27-1.22c2.26 2.73 3.1001 6.9399 0.77 9.9-1.62 2.8099-6.5599 1.99-7.09-1.28-1.54-3.1899 0.4399-6.26 2.46-8.61 0.9701 0 2.9-0.01 3.86-0.01zm578.92-3.1801c-0.72 2.0801-1.41 4.1801-2.1801 6.25-0.8999 0.01-1.7799 0.03-2.6299 0.0701-0.3101-2.87 0.6699-5.47 2.48-7.65 0.75 0.43 1.5299 0.88 2.33 1.3299zm-625.71-2.7099c0.95-0.04 2.86-0.12 3.82-0.16 3.29 2.99 3.38 9.3101-0.47 11.9-1.98 1.1901-4.62 0.03-5.51-1.96-0.43-3.4-0.72-7.36 2.16-9.78zm609.67-2.6701c-0.01 0.4701-0.0199 1.41-0.0299 1.88l1.2-0.3899c-1.48 1.84-2.48 3.98-3.37 6.1599-0.91-0.3099-1.79-0.58-2.66-0.8199-0.09-1.51-0.0699-2.99-0.14-4.47 0.16 1.26 0.4801 2.49 0.9701 3.71 0.2799-2.09 0.51-4.2 1.34-6.15 0.8698 0.01 1.7698 0.04 2.6898 0.0799zm-654.43-3.2899c1.45 0.02 2.9 0.0599 4.37 0.15 1.63 2.6 3.39 5.8199 1.4 8.7799-0.85 3.3301-5.6 4.63-7.63 1.66-2.12-2.27-1.22-5.45-0.44-8.0699 0.75-0.8501 1.52-1.69 2.3-2.52zm637.72-1.98c0.08 2.4199-0.11 4.87-1.29 7.0399-0.49 0.04-1.48 0.12-1.98 0.16-0.0499-2.4399-0.0699-4.9399 1.16-7.12 0.52-0.0199 1.58-0.06 2.11-0.0799zm-679.07-2.81c2.21 3.51 1.13 8.6-2.36 10.93-0.88 0.01-2.63 0.02-3.51 0.0299-0.79-0.7899-1.58-1.5699-2.36-2.3199-0.11-3.51-0.64-7.49 2.25-10.09 1.97 0.3799 4.77-0.7101 5.98 1.4499zm662.08-2.51c0 1.76-0.01 3.54-0.03 5.3201-0.97 0.8999-1.9199 1.8099-2.86 2.73-1.9201-2.7501-0.9201-7.72 2.89-8.0501zm-17.29-4.31c0.2001 2.77-0.85 6.1599-4.11 6.23-1.45-2.7001 0.39-8.65 4.11-6.23zm-693.49 0.61c2.2 3.73 0.46 11.06-4.79 10.39-3.89 0.5-5.8-4.25-5.29-7.49 1.09-1.51 2.14-3.0601 3.17-4.6101 2.34 0.0401 5.95-1.37 6.91 1.7101zm674.96-6.95c0.0499 2.62-0.78 5.0601-2.26 7.2001-0.55-0.03-1.65-0.0801-2.1901-0.11-0.1-2.48 0.08-4.9701 1.0601-7.27 1.1099 0.0599 2.2399 0.1199 3.39 0.1799zm-728.09-1.92c4.73 3.1 3.48 12.25-2.5099 13.08-2.05 0.47-3.45-1.0599-4.82-2.23-0.26-2.13-1.03-4.27-0.66-6.41 0.75-1.6699 1.91-3.09 2.98-4.5399 1.6599-0.0301 3.3499-0.2801 5.0099 0.0999zm934.53-3.98c-0.08 1.0699-0.14 2.1599-0.17 3.26-1.0699 0.8799-2.09 1.7799-3.09 2.73-0.27-1.02-0.66-1.9401-1.1899-2.78 0.36-0.0601 1.1-0.1801 1.46-0.23 0.4399-1.0601 0.9-2.11 1.38-3.14 0.4099 0.0401 1.2099 0.12 1.6099 0.16zm-227.05-1.47c1.9501 2.88 0.8501 9.6901-3.7699 8.4501-0.1001-3.2801 0.1599-7.1501 3.7699-8.4501zm-766.43-1.7601c2.7 0.02 6.4-0.5699 7.59 2.6001 0.58 3.39 0.96 8.0299-2.71 9.86-2.47 1.83-5.38 0.25-7.35-1.48-0.1-2.8501-0.12-5.6901 0.01-8.52 0.82-0.83 1.64-1.65 2.46-2.4601zm983.8-0.9199c-0.47 1.64-0.9299 3.28-1.35 4.95-0.9299-0.02-1.84-0.02-2.72 0 0.49-1.6 0.91-3.23 1.38-4.83 0.8701-0.05 1.7701-0.0899 2.69-0.12zm-237.1-2.8399c0.74 3.1799 0.01 7.5699-3.74 8.3899-2.34-2.96-0.45-9.17 3.74-8.3899zm225.57-3.2001c0.77 1.46 1.14 3.05 1.3099 4.71-1.1 0.5701-2.15 1.1901-3.21 1.77 0.2201-2.2799 0.6001-4.55 1.9001-6.48zm-247.9-4.36c1.89 2.59 1.08 5.65 0.14 8.4301-1.3301 0.0299-2.65 0.09-3.9501 0.1899-0.2499-3.4399 0.4201-6.98 3.8101-8.62zm238.25 0.1899c0.1799 2.76 0.27 6.9301-3.67 6.5 0.02-1.3099 0.0601-2.61 0.12-3.8799 0.8101-0.4301 1.63-0.8601 2.4701-1.28 0.2699-0.33 0.8099-1.01 1.0799-1.3401zm-10.82-3.8798c-0.3999 2.1299-1.3199 4.1-2.4199 5.96-0.86-0.0601-1.7001-0.11-2.51-0.14 0.75-2.5501 1.35-6.4101 4.9299-5.82zm-248.76-2.1701c-0.0901 2.03-0.1901 4.0699-0.3 6.12-0.76 0.74-1.51 1.49-2.24 2.26-0.41 0.01-1.25 0.03-1.67 0.04-1.77-2.51-0.6699-5.3501 0.23-7.9401 1.3099-0.18 2.6199-0.3499 3.98-0.4799zm235.94-2.92c-0.12 1.69-0.21 3.41-0.3 5.13-0.5399 0.0801-1.63 0.26-2.1799 0.34 0.11-1.6599 0.25-3.3099 0.4-4.95 0.5198-0.13 1.5599-0.39 2.0799-0.52zm-259.1-3.77c0.3099 3.43-0.79 6.71-3.76 8.67-2.58-2.35-1.46-5.99-0.42-8.78 1.38 0.02 2.77 0.05 4.18 0.11zm246.37-2.84c0.4 0.57 0.84 1.15 1.2999 1.74 0.28 2.73-1.5 5.83-4.6 5.2401 0.0701-0.58 0.2001-1.75 0.26-2.33 1.09-1.5001 2.1401-3.0301 3.0401-4.6501zm-11.33-4.03c-0.5399 1.58-1.0299 3.2-1.5099 4.82-1.02 0.1-2.02 0.21-3 0.31 0.4399-1.7401 0.95-3.47 1.5399-5.16 0.97-0.01 1.9602 0 2.97 0.03zm-260.05-1.43c0.2 2.9 0.33 5.95-1.29 8.54-0.98-0.05-2.9399-0.16-3.9299-0.22-0.6401-3.57 0.3799-9.12 5.2199-8.32zm245.74-5.87c0.64 3.1899-0.03 6.33-2.55 8.52-1.6499-1.47-1.0399-3.79-1.09-5.7 1.1901-0.95 2.41-1.89 3.64-2.82zm-271.73-2.09c1.72 3.35 0.5699 7.44-2.5601 9.48-0.6899-0.35-2.08-1.06-2.77-1.42-0.0699-2.65 0.3601-5.25 1.5701-7.62l3.76-0.44zm257.86-3.65c0.4399 2.76-0.38 5.32-2.2 7.42-3.52-1.19-0.6101-5.16 0.5599-7.19 0.4101-0.06 1.2301-0.17 1.6401-0.23zm-286.51-5.63c4.55 2.4 2.39 8.22-0.79 10.81-0.6799-0.3799-2.0399-1.15-2.72-1.53-0.6701-3.67 0.38-7.12 3.51-9.28zm271.87 0.4c-0.33 1.81-0.75 3.6-1.25 5.37-1.1899-0.03-2.36-0.04-3.52-0.04 0.53-1.83 1.22-3.61 2.11-5.3 0.67 0 2-0.02 2.66-0.03zm-15.35-6.81c0.46 3.21-1.46 7.2-5.22 6.16 0.56-2.65 1.49-7.18 5.22-6.16zm-282.8-1.27c0.02 2.36 0 4.74-0.01 7.12-1.5 1.04-3.1 3.23-5.1499 2.04-0.6901-3.03-0.1801-6.12 1.0199-8.92 1.03-0.06 3.1001-0.18 4.14-0.24zm267.04-4.61c-0.85 1.62-1.62 3.29-2.38 4.95-1.01-0.01-2 0-2.97 0.03 0.0399-0.92 0.09-1.83 0.15-2.73 0.7-1.23 1.4099-2.47 2.1299-3.69 1.1101 0.22 2.2001 0.6 3.0701 1.44zm-296.1-2.61c0.6599 3.17-0.89 8.39-4.9401 7.58-2.35-2.21-1.85-7.06 0.6-9.1201 1.3602-1.6899 4.62-0.9099 4.3401 1.5401zm277.65-7.08c0.6399 2.62 0.6 5.4-0.8101 7.77-1.1-0.08-2.17-0.15-3.23-0.22 0.07-3.08 1.28-5.96 4.0401-7.55zm-311.37-4.54c2.8201-0.87 2.9801 2.72 2.77 4.57 0.4501 2.71-1.88 4.33-3.59 5.95-0.72-0.36-2.16-1.09-2.88-1.45-0.1399-3.22-0.3499-8.38 3.7-9.07zm293.28-3.28c2.39 3.13 0.5801 6.9-2.28 8.94-3.08-2.94-0.3799-6.92 2.28-8.94zm-17.5-6.98c-0.0699 1.67-0.12 3.36-0.15 5.05-1.3899 1.46-3.8099 3.78-5.21 0.99 0.78-2.7 1.65-6.66 5.36-6.04zm-305.3 0.5c0.45 3.48 0.34 7.13-2.17 9.84-1.33 0.05-2.65 0.1201-3.9399 0.21-1.25-2.84-1.1801-6.23 0.49-8.88 1.0599-2.16 3.7299-1.13 5.6199-1.17zm284.85-9.83c2.65 3.02 0.45 8.96-3.98 8.07-0.43-3.34 0.94-6.49 3.98-8.07zm-318.76-0.42c0.04 2.29 0.08 4.58 0.13 6.88-1.6 1.39-3.21 4.53-5.71 2.95-2.52-2-1.91-6.2-0.3101-8.6 1.1601-2.21 3.9101-1.02 5.8901-1.23zm297.52-8.07c2.7999 0.66 1.2899 3.98 1.5399 5.99-1.3999 1.5-3 2.74-5.1699 2.36-0.14-3.12 0.51-6.85 3.63-8.35zm-333.3-2.95c-0.1799 3.31 1.3101 8.32-2.6 9.98-0.87 0.0699-2.6 0.21-3.47 0.28-2.0901-3.31-1.37-7.47 1.0399-10.39 1.6601 0.04 3.3401 0.07 5.0301 0.13zm312.41-6.29c2.87 1.62 0.73 5.17 0.25 7.55-1.4401 0.01-2.88 0.02-4.28 0.05-0.01-2.96 0.75-6.64 4.03-7.6zm-349.79-5.62c1.34 2.84 1.13 5.92 0.13 8.83-1.76 1.6-4.0499 3.34-6.41 1.72-1.3899-2.13-0.6399-4.87-0.86-7.25 1.6099-2.5 4.02-4.21 7.14-3.3zm327.86-4.43c1.9601 2.85 0.77 5.97-0.89 8.61-1.34-0.04-2.6899-0.09-4-0.12-0.6-3.74 1.35-7.15 4.89-8.49zm-370.37-7.7c2.12-0.65 3.54 1.1 4.9501 2.36-0.0701 3.04-0.8301 6.11-2.7201 8.57-1.7599 0.69-3.6799 0.2-5.48 0.11-0.36-2.83-0.4-5.68-0.12-8.5 1.0901-0.88 2.18-1.77 3.37-2.54zm346.34-2.44c3.1 3.1 1 7.88-2.12 10.07-0.9801-0.92-1.9401-1.83-2.89-2.73 0.9599-2.86 2.0899-5.92 5.01-7.34zm-22.72-9.35c-0.0499 2.29-0.46 4.55-1.11 6.7599-1.53 0.91-3.24 1.43-4.99 1.55-0.51-3.15 0.12-6.25 2.27-8.67 0.96 0.0901 2.87 0.2701 3.83 0.3601zm-360.94-0.32c1.52 2.72 1.77 6.5099-0.11 9.12-1.53 2.37-4.73 1.14-7.02 1.27-0.14-2.64-0.1801-5.27-0.14-7.89 0.8101-0.84 1.62-1.67 2.45-2.4901 1.59 1e-4 3.2-0.0099 4.82-0.0099zm335.05-10.66c0.2201 2.96-0.3199 5.86-2.2999 8.16-1-0.02-2.99-0.07-3.99-0.09-0.36-3.06 0.25-6.01 2.27-8.39 1.32 0.08 2.67 0.19 4.0199 0.32zm-376.59-0.45c1.43 3.21-0.41 6.44-2.52 8.81-2.01-0.12-4.02-0.21-6.02-0.31 0.01-3.4-1.39-7.88 1.99-10.16 1.92-2.2 5.76-1.07 6.55 1.66zm349.51-11.69c1.0701 3.56-0.83 10.64-5.62 8.75-2.08-3.82 0.58-10.09 5.62-8.75zm-393.74-1.78c0.65 4.14-1.71 10.27-6.87 9.04-4.29-0.41-2.22-6.12-2.57-8.99 0.79-0.8 1.59-1.6 2.39-2.39 2.71-0.33 5.46-0.22 7.05 2.34zm365.51-9.86c1.28 3.18-0.25 7.11-3.11 8.88-3.12 0.74-3.9601-2.33-3.9-4.72 1.3199-2.63 3.58-6.01 7.01-4.16zm-419.47-7.41c1.54-0.03 3.1-0.06 4.66-0.09 2.9 3 3.37 8.65-0.21 11.31-1.5 1.36-3.66 0.95-5.48 1.14-0.82-1.22-1.61-2.41-2.43-3.59-0.53-3.44 1.4-6.27 3.46-8.77zm389.55-6.04c0.3401 1.25 0.7201 2.5 1.13 3.75-0.75 3.06-2.6599 5.61-5.64 6.79-2.3199-2.09-1.38-5.33-1.37-8.03 1.6099-1.54 3.4799-2.92 5.88-2.51zm-436.36-9.67c2.31-0.4901 3.77 1.71 4.7 3.47 1.28 2.26 0.07 4.8-0.38 7.12-0.73 0.67-1.45 1.34-2.16 2.02-1.05 0.37-2.09 0.75-3.12 1.13-1.12-0.38-2.23-0.74-3.33-1.08-1.87-2.61-1.31-5.86-1.14-8.84 1.69-1.37 2.86-4.15 5.43-3.82zm406.55-0.74c0.65 3.13-1.65 5.4301-3.67 7.41-1.2999 0.06-2.59 0.12-3.86 0.2 1.36-0.39 2.75-0.75 4.14-1.12-0.91 0.09-2.74 0.28-3.65 0.37-1.64-3.34-0.6-7.01 1.99-9.51 1.91 0.13 5.49-0.34 5.05 2.65zm-453.06-12.18c0.04 3.05 0.94 6.72-1.73 8.99-1.47 2.23-4.5 2.14-6.76 1.4301-3.6-2.85-3.54-9.22 0.36-11.78 2.54-1.9801 6.15-0.9301 8.13 1.3599zm418.83-4.41c2.85 1.96 1.13 6.27-0.03 8.89-1.46 0.44-2.8301 1.48-4.4 1.28-3.65-3.19-1.04-11.32 4.43-10.17zm-34-14.95c2.5699 1.67 0.98 5.25 1.26 7.79-0.8201 0.82-1.6101 1.67-2.39 2.52-1.54-0.34-4.3201 0.75-4.77-1.42-0.1901-1.84-0.09-3.69-0.05-5.52 1.68-1.63 3.15-4.29 5.95-3.37zm-445.02-0.36c2.65-0.45 4.74 1.81 6.89 3.02 0.16 2.71 0.93 5.8199-0.98 8.14-1.62 3.53-6.26 4.09-9.31 2.14-0.66-1.27-1.37-2.48-2.11-3.66-0.92-4.21 2.6-7.28 5.51-9.64zm407.77-16.21c1.48 1.03 3.59 1.96 3.5699 4.1 0.8 2.9-1.15 5.28-2.45 7.64-1.89 0.08-3.76 0.06-5.61-0.07-0.0901-2.27-0.4301-4.59 0.0699-6.83 1.0601-1.93 3.0702-3.11 4.4202-4.84zm-39.35-14.42c1.55-0.01 3.1001-0.03 4.67-0.06 2.5699 4.01 0.99 9.22-3.21 11.33-1.1901-0.45-2.37-0.88-3.54-1.3-0.39-1.13-0.77-2.24-1.15-3.34 0.54-2.45 1.28-4.91 3.23-6.63zm-38.95-17.1c2.38-0.28 4.67 0.28 6.0601 2.39 0.7999 4.41-2.14 9.51-7.03 9.14-0.8201-0.91-1.63-1.81-2.4301-2.69-0.23-3.35 1.18-6.43 3.4-8.84zm-37.54-18.17c2.42 1.99 4.3301 5.4 2.38 8.4-1.0499 3.57-5.0699 4.93-8.2 3.08-0.9-2.57-1.74-5.77 0.13-8.11 1.2999-1.94 3.52-2.81 5.69-3.37zm-45.23-17.7c3.32-1.09 6.05 2.48 5.56 5.55 0.2 2.46-1.7599 4.17-3.14 5.92-2.26-0.37-5.58 0.76-6.65-1.94-1.5-3.49 0.63-8.39 4.23-9.53zm-39.39-17.74c0.06 2.26 0.09 4.53 0.0699 6.8-1.91 1.8701-3.75 4.89-6.8799 4.1201-4.89-1.98-4.5-9.85 0.1899-11.82 2.2001-1.0401 4.6001-0.1801 6.6201 0.8999zm-48.19-21.26c0.66 1.15 1.34 2.3 2.03 3.47 0.02 0.8 0.05 2.4 0.07 3.2-1.19 2.61-3.15 5.87-6.49 5.55-1.91 0.28-3.17-1.35-4.56-2.31-0.03-2.19-0.57-4.51 0.25-6.6 0.83-1.21 1.87-2.25 2.86-3.33 1.94 0 3.89 0 5.84 0.02zm-48.17-20.67c1.62 3.49 2.31 8.64-1.69 10.8-1.92 2.38-5 1.96-7.23 0.29-1.86-1.87-2.24-4.78-1.46-7.22 1.05-1.87 2.65-3.34 4.06-4.93 2.16-0.12 4.32 0.18 6.32 1.06zm-53.14-22.87c1.3199 1.17 2.45 2.6 3.2 4.22 1.11 3.94-1.96 7.7599-5.46 9.17-3.26 1.08-5.77-1.95-7.04-4.52-0.96-3.55 1.71-6.65 4.21-8.78 1.61-0.47 3.43-0.45 5.09-0.09zm-50.47-19.15c-0.03 1.5-0.05 3.01-0.04 4.52-1.14 1.39-2.23 2.83-3.54 4.06-1.96 0.86-4.19 0.32-6.25 0.4-0.79-0.88-1.58-1.75-2.36-2.62-0.27-3.31-0.63-7.28 2.62-9.31 3.48-1.37 7.88-0.75 9.57 2.95zm-245.97 145.24c-0.09 16.13 0.16 32.26-0.13 48.39 0.16 106.61 0.02 213.22 0.06 319.83 11.83 2.9199 23.58 6.1399 35.39 9.1599 8.47 1.54 17.07 2.1901 25.6 3.39 24.47 3.35 49.15 5.38 73.41 10.14 19.68 3.41 39.33 6.95 59.02 10.31 12.82 1.4099 25.68 2.47 38.54 3.5599 47.45 4.62 94.97 8.47 142.49 12.31 51.08 3.6899 102.01 9.13 152.98 14.12 32.65 0.13 65.31 0.0199 97.97 0.0599 10.66 0.0601 21.34-0.26 31.99 0.67 38.66 2.74 77.32 5.4199 115.98 8.15 9.64 0.9099 19.33 0.6399 29 0.6899 154.08-0.02 308.17-0.03 462.26-0.03 4.15-13.58 8.1901-27.19 11.53-40.99 2.14-9.2899 4.36-18.56 6.64-27.81 0.79-3.28 1.77-6.54 1.88-9.92 0.1-38.12-0.14-76.24 0.11-114.35-7.6899-3.19-15.61-5.76-23.44-8.57-21.22-7.48-42.35-15.22-63.53-22.8-15.86-5.31-30.79-12.93-46.15-19.49-18.71-8.29-37.41-16.62-56.11-24.93-19.38-8.36-38.28-17.77-57.42-26.65-17.21-8.15-34.42-16.27-51.63-24.41-7.7999-3.72-15.78-7.12-23.12-11.71-69.15-40.2-138.31-80.39-207.36-120.76-34.37-21.24-68.66-42.61-102.98-63.91-15.55-9.46-30.7-19.62-46.69-28.34-43.72-24.61-87.47-49.17-131.19-73.78-6.67-3.67-13.14-7.69-20.04-10.92-25.04-11.92-50.06-23.92-75.1-35.85-23.43-10.95-46.45-22.76-70.27-32.82-32.07-13.94-64.12-27.92-96.17-41.87-3.77-1.63-7.46-3.46-11.41-4.56-23.73-6.39-47.43-12.84-71.15-19.25-7.89-1.94-15.6-4.7-23.63-6.02-25.65-2.88-51.3-5.8-76.94-8.74-10.05-1.51-20.22-0.45-30.32-0.9-0.1802 112.86-0.0102 225.73-0.0702 338.6z" fill="#BD2525" stroke="#BD2525" stroke-width=".0938"/>
	<path d="m513.17 321.24c6.18-3 12.85-5.66 19.85-5.4 6.43 0.21 13.21-0.78 19.28 1.91 11.41 4.95 24.07 5.36 35.81 9.2 8.51 2.79 16.87 6.01 25.51 8.42 21.91 6.47 43.26 14.6 64.79 22.19 6.76 2.55 13.7 4.64 20.27 7.68 25.88 12.07 52.32 22.92 78.29 34.8 16.9 8.3 33.9 16.39 50.38 25.51 31.13 16.31 61.86 33.37 92.65 50.32 22.98 12.99 45.75 26.36 68.43 39.86 19.57 11.64 39.2 23.18 58.45 35.35 22.22 14.01 45.13 26.87 67.7 40.29 8.8101 5.53 17.48 11.3 26.39 16.67 0.28 7.37-0.8099 14.89 1.39 22.08 2.4301 8.88 3.14 18.46 8.04 26.48 4.83 8.76 10.64 17.25 18.56 23.51 6.55 6.34 14.57 10.8 22.06 15.92 16.68 10.75 33.66 21.02 50.45 31.6 11.43 7.29 22.47 15.38 34.92 20.88 3.4299 1.02 7.08 0.6 10.62 0.7 7.37 0.57 13.71-4.83 17.29-10.81 3.6499-4.69 5.0399-10.53 6.96-16.03 1.0699-3 1.36-6.19 1.45-9.34 5.99 3.5099 11.59 7.65 17.59 11.16 0.25-29.46 0.1-58.92 0.0699-88.38 1.39 0.01 2.95-0.27 4.12 0.79 7.59 5.7 14.89 11.79 22.57 17.38 0.4299-46.18-0.27-92.38 0.33-138.56 14.65 13.77 29.36 27.48 44.11 41.15 0.03 13.82 0.04 27.64 0 41.46 18.06 17.24 36.34 34.25 54.35 51.56 23.97 22.21 47.33 45.07 71.29 67.29 74.1 70.24 148.31 140.38 222.47 210.55 0.73 0.65 1.09 1.49 1.08 2.51 0.55 9.95-0.5499 19.98 0.4601 29.89 4.9199 4.97 11.05 8.59 16.34 13.18 0.26 6.16-0.3 12.35 0.22 18.5 4.49 3.9 10.19 6.15 15.05 9.6 0.04 2.12 0.09 4.24 0.16 6.38-0.5-0.1-1.49-0.31-1.99-0.42-21.22-7.48-42.35-15.22-63.53-22.8-15.86-5.31-30.79-12.93-46.15-19.49-18.71-8.29-37.41-16.62-56.11-24.93-19.38-8.36-38.28-17.77-57.42-26.65-17.21-8.15-34.42-16.27-51.63-24.41-7.7999-3.72-15.78-7.12-23.12-11.71-69.15-40.2-138.31-80.39-207.36-120.76-34.37-21.24-68.66-42.61-102.98-63.91-15.55-9.46-30.7-19.62-46.69-28.34-43.72-24.61-87.47-49.17-131.19-73.78-6.67-3.67-13.14-7.69-20.04-10.92-25.04-11.92-50.06-23.92-75.1-35.85-23.43-10.95-46.45-22.76-70.27-32.82-32.07-13.94-64.12-27.92-96.17-41.87-3.77-1.63-7.46-3.46-11.41-4.56-23.73-6.39-47.43-12.84-71.15-19.25-7.89-1.94-15.6-4.7-23.63-6.02-25.65-2.88-51.3-5.8-76.94-8.74-10.05-1.51-20.22-0.45-30.32-0.9-3.95-0.21-7.99-0.44-11.82 0.72-9.58 2.68-18.65 6.92-27.48 11.46-7.58 4.11-15.35 8.21-21.68 14.16-6.51 6.58-12.23 13.89-17.9 21.2-3.72 4.97-7.7 9.78-10.86 15.16-6.02 10.05-12.01 20.13-18.11 30.14-5.38-10.68-9.43-21.98-13.97-33.04-2.77-6.02-1.38-12.78-1.69-19.16-0.75-15.06 4.22-29.55 8.07-43.9 1.38-5.31 4.59-9.83 7.3-14.52 2.57-4.35 4.77-8.99 8.22-12.74 5.46-5.89 10-12.61 16.06-17.95 10.61-10.78 21.93-20.82 33.63-30.4 14.03-10.52 28.71-20.13 43.68-29.25m852.06 277.66c-0.03 11.62-0.0699 23.24 0 34.86 2.27 1.87 4.3 4.16 7.11 5.28-0.0499-11.39-0.0499-22.78-0.02-34.17-2.2-2.18-4.56-4.2-7.09-5.97m15.19 13.26c0.0499 11.43-0.14 22.87 0.0699 34.3 2.08 1.77 4.26 3.46 6.64 4.86 0.27-11.06 0.38-22.18-0.03-33.23-1.8999-2.32-4.4198-4.01-6.6799-5.93m14.83 13.51c-0.03 10.98-0.28 21.98 0.1 32.96 2.17 1.7 4.3101 3.46 6.4501 5.25-0.02-10.96 0.26-21.94-0.12-32.89-1.4902-2.41-4.1501-3.78-6.4301-5.32m14.42 12.85c-0.2001 10.55-0.0801 21.1-0.0701 31.65 2.02 1.77 4.12 3.46 6.3301 5 0.5099-7.72 0.1-15.46 0.24-23.19-0.12-2.92 0.3199-5.94-0.4601-8.79-1.5899-2.04-3.8998-3.32-6.0399-4.67m13.77 12.54c0.03 10.06 0.13 20.12-0.0499 30.18 2.03 1.95 4.17 3.79 6.37 5.57 0.02-10.48 0.1899-20.97-0.0601-31.45-1.9599-1.6-3.76-3.6-6.26-4.3m13.77 11.66c-0.11 10.03-0.11 20.06 0.02 30.09 1.8101 1.65 3.75 3.16 5.87 4.43 0.4-9.08 0.09-18.17 0.1901-27.25 0.4499-3.75-3.5401-5.47-6.0801-7.27m-103.31 1.03c-0.09 8.75-0.0801 17.51-0.0701 26.26 0.13 1.37-0.26 3.22 1.1801 4.08 3.27 2.45 6.6799 4.72 10.13 6.92 0.24-9.71 0.22-19.43 0.0499-29.13-3.1599-3.4-7.3299-5.77-11.29-8.13m116.38 10.28c-0.04 9.86-0.05 19.72 0.0399 29.58 1.88 1.57 3.8 3.1 5.8 4.54 0.37-9.72 0.11-19.46 0.14-29.19-1.8899-1.78-3.8799-3.44-5.9799-4.93m-99.9 1.78c-0.03 9.57-0.0601 19.14 0.02 28.72 3.61 2.47 7.13 5.0699 10.8 7.47 0.3401-9.67 0.12-19.35 0.1101-29.02-3.64-2.41-6.98-5.28-10.93-7.17m112.87 9.87c-0.13 8.8-0.09 17.6-0.0699 26.41-0.3501 3.34 3.46 4.5099 5.58 6.2599 0.01-9.42 0.25-18.85-0.11-28.24-1.1901-2.0499-3.5802-3.0399-5.4001-4.4299m-96.97 1.33c0.02 9.47-0.17 18.95 0.11 28.42 3.47 2.27 6.77 4.81 10.36 6.93 0.13-9.39 0.08-18.78 0-28.17-3.5-2.39-6.92-4.89-10.47-7.18m109.26 9.9c0.02 9.1 0.01 18.2 0.0299 27.31 1.7401 1.54 3.5901 2.95 5.6101 4.16 0.2699-8.12 0-16.24 0.1499-24.35 0.6201-3.66-2.9299-5.88-5.7899-7.12m-93.74 1.79c-0.24 8.82-0.17 17.66-0.05 26.48 2.87 3.15 6.8199 5.15 10.32 7.57 0.1901-7.94 0.02-15.87 0.1001-23.81-0.2001-1.39 0.37-3.22-0.9801-4.14-2.9299-2.33-6.0299-4.46-9.3899-6.1m106 8.91c-0.26 8.84-0.04 17.68-0.12 26.53 1.7 1.5 3.5099 2.89 5.4399 4.12 0.22-8.8 0.22-17.61 0.05-26.41-1.2199-2.03-3.4099-3.12-5.3699-4.24m-90.92 2.1c-0.13 8.7-0.55 17.51 0.16 26.15 3 2.52 6.34 4.6 9.6799 6.67 0.0701-8.79-0.02-17.58 0.0601-26.37-3.2-2.2999-6.24-4.9099-9.9-6.4499m102.51 7.6c0.0599 8.78 0.0499 17.57 0 26.36 1.6899 1.51 3.45 2.95 5.28 4.31 0.08-8.84 0.1499-17.68-0.04-26.51-1.78-1.37-3.52-2.76-5.24-4.16m-87.94 2.6c-0.0699 8.6-0.0299 17.21-0.0299 25.81 3.1599 2.2401 6.2899 4.57 9.6899 6.48 0.1901-8.4 0.3-16.83 0.02-25.22-2.74-2.92-6.36-4.88-9.68-7.07m99.52 7.84c-0.28 7.75-0.09 15.52-0.14 23.28-0.1799 3.11 3.12 4.47 5.15 6.15 0.35-7.73 0.1901-15.48 0.16-23.21 0.32-3.23-3.0701-4.6-5.17-6.22m-85.36 2.45c-0.12 8.3-0.01 16.6-0.08 24.91 3.12 2.32 6.22 4.71 9.65 6.59 0.1599-8.27-0.01-16.54 0.1-24.8-3.11-2.41-6.28-4.74-9.67-6.7m96.63 7.3c-0.3099 3.15-0.51 6.32-0.34 9.49 0.34 5.24-0.48 10.52 0.39 15.74 1.5699 1.16 3.1499 2.31 4.7799 3.44 0.2301-7.38 0.0801-14.77 0.1001-22.15 0.53-3.29-2.92-4.72-4.93-6.52m-82.74 2.62c-0.0699 8.17-0.03 16.35-0.03 24.52 3 2.18 6.0701 4.29 9.1901 6.32-0.02-8.19 0.0299-16.38-0.0701-24.56-3.04-2.1-6.0299-4.24-9.09-6.28m93.41 6.9c-0.2201 7.35-0.17 14.7-0.13 22.05-0.2101 3 2.98 4.36 4.9399 6 0.0901-7.38 0.0601-14.75 0.0601-22.12 0.44-3.1-2.9699-4.27-4.87-5.93m-79.85 3.03c-0.5801 6.61-0.14 13.26-0.3 19.89 0.14 1.39-0.4401 3.26 0.9299 4.25 2.53 2.1 5.38 3.77 8.04 5.71 0.1901-7.9301 0.04-15.87 0.0701-23.8-2.8602-2.1-5.7501-4.16-8.74-6.05m90.36 6.18c0.09 7.8-0.26 15.62 0.14 23.4 1.0599 1.59 2.8199 2.53 4.36 3.62 0.58-7.07 0.2-14.18 0.26-21.26 0.2-2.94-2.93-4.13-4.76-5.76m-77.52 3.5c-0.1901 7.49 0.0399 14.98-0.15 22.47 2.78 2.21 5.61 4.42 8.86 5.95-0.08-7.58 0.1901-15.18-0.14-22.74-2.5399-2.3399-5.52-4.1299-8.57-5.6799m87.86 6c-0.37 7.43-0.1 14.88-0.1901 22.32 1.4901 1.29 3.02 2.53 4.62 3.72 0.2101-7.64 0.0801-15.29 0.0701-22.92-1.47-1.1-2.98-2.15-4.5-3.12m-75.05 3.08c-0.37 7.4-0.1 14.81-0.14 22.22 2.76 1.97 5.51 3.97 8.3101 5.92 0.76-7.33 0.11-14.72 0.4399-22.07-2.6301-2.36-5.54-4.37-8.61-6.07m84.84 5.27c-0.13 7.36-0.0601 14.73-0.03 22.1 1.4 1.24 2.8199 2.49 4.26 3.74 0.64-6.63 0.3199-13.3 0.3099-19.95 0.4101-3.02-2.5799-4.35-4.5399-5.89m-72.6 3.75c-0.2 7.05-0.34 14.13 0.02 21.17 1.99 2.39 4.9601 3.86 7.51 5.66 0.1901-0.08 0.5701-0.24 0.76-0.3199 0.04-6.81 0.14-13.64-0.05-20.44-1.95-2.8501-5.34-4.3501-8.24-6.0701m82.33 4.99c-0.0901 6.76-0.13 13.53 0 20.29-0.12 2.36 2.76 3.03 4.1699 4.42 0.27-7.21 0.03-14.42 0.1101-21.63-1.43-1.05-2.84-2.08-4.28-3.08m-70.06 3.37c-0.7 6.91-0.52 13.89-0.27 20.81 2.02 2.62 5.2201 4.05 7.8601 6 0.33-7.2 0.6399-14.46-0.15-21.64-2.5902-1.58-5.0601-3.32-7.4401-5.17m79.39 4.88c-0.11 6.3-0.14 12.61-0.0599 18.92-0.3301 2.62 2.4399 3.75 4.1399 5.14 0.2001-6.4 0.15-12.81 0.0901-19.21 0.3399-2.58-2.5201-3.6-4.1701-4.85m-68.07 3.92c-0.02 6.8 0.02 13.62-0.02 20.43 2.53 1.78 5.11 3.51 7.7999 5.07 0.2201-6.8 0.15-13.6 0.0601-20.4-2.54-1.83-5.03-3.74-7.84-5.1m77.11 4.12c-0.16 6.7 0.0499 13.41-0.1 20.12 1.3199 1.07 2.6899 2.11 4.1399 3.06 0.0901-6.69 0.28-13.4-0.08-20.08-0.9599-1.42-2.6399-2.14-3.9599-3.1m-65.58 3.87c-0.23 6.62-0.47 13.29 0 19.89 2.0601 2.22 4.78 3.65 7.4401 5.07-0.05-6.64 0.14-13.29-0.11-19.92-2.49-1.64-4.91-3.35-7.3301-5.04m74.44 3.9c-0.09 6.56-0.0601 13.13-0.02 19.69 1.34 1.1 2.7 2.2 4.08 3.29 0.02-6.72 0.0801-13.44-0.0599-20.16-1.3501-0.95-2.6801-1.89-4.0001-2.82m-63.49 4.1c-0.4 5.66-0.24 11.35-0.22 17.03-0.2001 4.11 4.6899 5.28 7.4399 7.21 0.09-6.42 0.12-12.85 0.01-19.27-2.3999-1.69-4.7999-3.37-7.2299-4.97m72.25 3.63c-0.0801 6.42-0.02 12.85-0.03 19.28 1.25 0.86 2.5 1.71 3.8 2.57 0.3099-5.83 0.1799-11.67 0.1499-17.5 0.1101-2.31-2.4599-3.14-3.9199-4.35m-61.69 4.38c0.0601 6.17-0.1799 12.36 0.05 18.53 2.16 1.97 4.75 3.42 7.0699 5.23-0.0299-6.44 0.14-12.88-0.0499-19.31-2.25-1.66-4.57-3.22-7.07-4.45m69.92 2.91c-0.03 6.24-0.02 12.49-0.01 18.75 1.23 0.87 2.48 1.74 3.75 2.62 0.3-6.17 0.02-12.33 0.21-18.49-1.33-0.99-2.6301-1.95-3.95-2.88m-59.35 4.82c-0.49 6-0.39 12.05-0.09 18.07 2.1699 1.61 4.4199 3.11 6.7999 4.45 0.39-5.76 0.38-11.56 0.14-17.32-1.1699-2.7-4.4899-3.72-6.8499-5.2m67.44 2.31c0 6.06 0.02 12.13 0.02 18.2 1.25 0.89 2.52 1.8 3.8 2.7 0.0299-6.04 0.0299-12.09-0.03-18.12-1.28-0.95-2.54-1.87-3.79-2.78m-57.36 4.8c0.05 5.92-0.37 11.9 0.1801 17.81 1.88 1.78 4.1899 3.04 6.4 4.42 0.0399-5.95 0.0099-11.89 0.0199-17.83-2.11-1.63-4.3-3.11-6.6-4.4m65.41 2.23c-0.12 5.34-0.13 10.69-0.08 16.04-0.3501 2.26 2.1399 3.06 3.59 4.15 0.23-5.45 0.28-10.92 0.0699-16.36-0.0799-1.98-2.3599-2.72-3.5799-3.83m-55.75 4.83c0.03 5.7-0.4 11.45 0.17 17.13 1.6799 2.02 4.2 3.07 6.3999 4.45 0.1801-5.8199 0.2001-11.64-0.0499-17.46-2.15-1.44-4.29-2.85-6.52-4.12m63.46 1.95c-0.01 5.62-0.25 11.26 0.04 16.87 0.84 1.27 2.12 2.18 3.25 3.23 0.0499-5.86 0.4-11.75-0.11-17.59-0.93-1.02-2.11-1.73-3.18-2.51m-53.82 5.12c-0.02 5.63-0.1 11.26 0.0599 16.89 2.1 1.32 4.16 2.72 6.2101 4.14 0.12-5.67 0.0499-11.34 0.0499-17.01-1.9799-1.54-4.0799-2.94-6.3199-4.02m61.25 1.8c-0.13 5.4-0.3101 10.82 0.03 16.22 0.97 1.06 2.12 1.89 3.2799 2.79 0.23-5.29 0.29-10.6 0.1-15.88-0.2299-1.81-2.0899-2.39-3.4099-3.13m-51.89 5.03c-0.15 5.12-0.3201 10.26-0.0701 15.38 1.0901 2.47 4.03 3.4 6.13 4.9 0.39-5.42 0.13-10.85 0.1801-16.27-1.9499-1.54-4.03-2.92-6.24-4.01m59.35 1.03c-0.3099 5.34-0.65 10.74 0.0601 16.06 0.24 1.38 2.0399 1.56 2.96 2.43 0.3099-5.24 0-10.49 0.23-15.72-1.1001-0.94-2.18-1.86-3.2501-2.77m-50.4 5.18c0 5.29-0.45 10.65 0.1901 15.91 1.63 1.7401 3.7899 2.84 5.7999 4.11-0.0699-5.29 0.2201-10.59-0.14-15.87-1.69-1.72-3.86-2.85-5.85-4.15m57.4 0.91c-0.2 5.35-0.0599 10.7-0.1 16.06 0.91 0.45 2.1 2.5601 3.14 1.35 0.14-4.84-0.0701-9.68 0.12-14.52-1.07-0.98-2.12-1.94-3.16-2.89m-48.74 5.4c0.16 5.11-0.2 10.24 0.14 15.36 1.5599 1.85 3.8099 2.91 5.85 4.2-0.0599-5.26 0.14-10.52-0.12-15.78-1.99-1.22-3.95-2.5-5.87-3.78m55.73 0.71c-0.5699 4.65-0.48 9.35-0.33 14.03-0.1801 1.73 1.6699 2.64 2.5399 3.91 1.4901-4.89 0.42-10.08 0.8-15.1-1.0299-0.96-2.0199-1.91-3.0099-2.84m-46.97 5.76c-0.11 5.02-0.0601 10.03-0.04 15.06 1.7001 1.29 3.54 2.44 5.49 3.4 0.0801-4.98 0.0801-9.96 0.05-14.94-1.8-1.25-3.62-2.44-5.5-3.52m53.34 0.27c-0.0399 4.63-0.15 9.26-0.01 13.88-0.12 1.75 1.92 2.28 3.0701 3.16 0.1-4.96 0.08-9.92-0.01-14.88-1.0401-0.73-2.0501-1.45-3.0501-2.16m-45.22 5.81c0.1 4.64-0.2 9.29 0.08 13.92 1.13 1.95 3.55 2.83 5.3301 4.1899 0.0399-4.95 0.63-9.9 0.02-14.83-1.7301-1.2499-3.5301-2.3699-5.4301-3.2799m51.86-0.02c0.01 4.92-0.4399 9.89 0.2 14.79 0.8201 0.61 1.7001 1.17 2.65 1.68 0.05-4.49 0.29-8.98-0.0299-13.44-0.1001-1.64-1.7301-2.22-2.8201-3.03m6.1999 5.44c0.05 4.95-0.23 9.92 0.2101 14.87 0.66 0.23 1.98 0.69 2.64 0.93 0.09-4.67 0.1799-9.33-0.0601-13.99-0.9699-0.62-1.8799-1.21-2.79-1.81m-49.86 0.39c-0.26 4.77-0.24 9.55-0.0499 14.33 1.72 1.05 3.45 2.12 5.21 3.17 0.01-4.66 0.3101-9.34-0.09-13.98-1.2601-1.7-3.3302-2.49-5.0701-3.52m55.99 5.34c0.01 4.48-0.24 8.98 0.0901 13.46 0.7799 0.71 1.65 1.35 2.59 1.9301 0.1-4.48 0.35-8.97 0.03-13.43-0.7101-0.94-1.8-1.36-2.7101-1.96m-48.13 13.75c0.9601 1.88 3.3 2.54 5.16 3.35-0.0599-4.54-0.0399-9.06-0.0599-13.59-1.6901-1.1-3.37-2.22-5.02-3.31-0.29 4.5-0.41 9.04-0.0801 13.55m54.02-8.45c-0.0399 4.4-0.02 8.8 0.0601 13.21 0.87 0.55 1.76 1.11 2.6799 1.69-0.21-4.83 0.99-9.94-0.88-14.53-0.47-0.09-1.4-0.28-1.86-0.37m-46.65 0.47c0 4.42-0.3301 8.86 0.1399 13.27 1.4801 1.47 3.3501 2.46 5.12 3.58-0.0099-4.5 0.39-9.02-0.1499-13.48-1.4101-1.54-3.3502-2.38-5.11-3.37m52.55 4.18c-0.1 3.99-0.23 8-0.0699 12.01-0.15 1.52 1.5 2.2 2.4099 3.15 0.2001-4.05 0.79-8.13 0.2101-12.17-0.1301-1.4599-1.6701-2.0799-2.5501-2.9899m-45.05 1.07c0.0099 4.2599-0.26 8.53 0.1 12.78 0.88 1.86 3.1799 2.45 4.86 3.44 0.1-4.11 0.3199-8.23 0.02-12.33-1.0601-1.88-3.3201-2.65-4.98-3.89m50.77 3.93c-0.4299 4.02-0.5399 8.1-0.1599 12.14 0.62 1.12 1.7 1.89 2.63 2.78-0.0601-4.19 0.24-8.4-0.12-12.57-0.7301-0.87-1.5701-1.6-2.3501-2.35m-43.67 1.19c0.11 4.22 0.11 8.46 0.01 12.69 1.5399 1.18 3.12 2.3199 4.7799 3.3799 0.2301-4.17 0.1001-8.34 0.25-12.51-1.6398-1.26-3.3299-2.44-5.0399-3.56m48.99 3.78c-0.04 3.67-0.17 7.35 0.02 11.03-0.2101 1.55 1.37 2.22 2.3199 3.16 0.72-4.24 0.4-8.6-0.3-12.81-0.6899-0.49-1.3599-0.95-2.0399-1.38m-42.02 1.91c-0.02 3.93 0.05 7.86 0.02 11.8 1.48 1.23 3.08 2.28 4.89 3.04 0.0599-3.97-0.05-7.93 0.09-11.89-1.47-1.32-3.12-2.38-5-2.95m47.52 2.82c-0.3301 3.45-0.37 6.92-0.24 10.39-0.4 1.63 1.4299 2.3 2.4299 3.14 0.16-3.43 0.29-6.87 0.12-10.3 0.2401-1.6-1.2999-2.43-2.3099-3.23m-40.58 1.92c-0.0399 4 0 8.01 0.0701 12.03 1.45 0.88 2.9299 1.77 4.41 2.67 0.0699-4.0601 0.0399-8.1201 0-12.17-1.5-0.87-2.9899-1.71-4.4801-2.53m45.63 3.11c-0.1799 3.12-0.35 6.25-0.1799 9.39-0.3 1.65 1.35 2.37 2.4 3.26 0.1799-3.78 0.4199-7.57 0.0499-11.33-0.57-0.33-1.71-0.99-2.27-1.32m-38.87 1.37c-0.2999 3.67-0.5399 7.37-0.1699 11.06 0.58 1.94 2.87 2.48 4.34 3.61 0.16-3.89 0.15-7.78 0.12-11.67-1.44-1.01-2.8701-2.01-4.2901-3m44.11 2.65c-0.2999 3.08-0.5199 6.18-0.35 9.29-0.37 1.73 0.9 2.6 2.27 3.3 0.14-3.13 0.27-6.27 0.15-9.39 0.2701-1.53-1.2099-2.31-2.07-3.2m-37.93 2.08c-0.05 3.86-0.04 7.73 0.1 11.59 1.4 0.83 2.78 1.64 4.23 2.49 0.0601-3.75 0.05-7.49 0.11-11.23-1.48-0.99-2.95-1.93-4.44-2.85m42.45 11.19c-0.39 1.65 0.9601 2.58 2.1801 3.31 0.3199-4.17 1.22-8.77-1.1901-12.5-1.92 2.61-0.82 6.16-0.99 9.19m-37.17-6.67c0.6499 3.8-1.3 8.49 1.27 11.69 1.3199 0.62 2.6499 1.27 3.99 1.96-0.0601-3.67-0.0701-7.33-0.15-10.98-1.09-0.73-2.16-1.45-3.2101-2.16l0.16-0.65c-0.5199 0.03-1.5499 0.11-2.0599 0.14m7.1 4.42c-0.15 3.52-0.11 7.06-0.1801 10.61 1.38 0.92 2.7201 1.83 4.16 2.7599 0.02-3.42 0.24-6.84-0.05-10.23-0.4599-1.7599-2.6899-2.1199-3.9299-3.1399m5.82 4.22c-0.1 3.46-0.0499 6.93-0.1499 10.4 1.34 0.88 2.6799 1.73 4.1 2.58 0.0699-3.46 0.0499-6.91 0.22-10.35-1.3901-0.89-2.8001-1.81-4.1701-2.63m5.81 4.06c-0.04 3.33-0.26 6.68 0.0499 10.01 0.66 1.5 2.51 1.88 3.8201 2.72 0.0499-3.25 0.28-6.5-0.04-9.73-1.0399-1.29-2.52-2.07-3.83-3m5.5 4.27c-0.04 3.25-0.28 6.52 0.16 9.77 0.88 1 2.1599 1.46 3.37 2.07 0.61 0.63 1.2699 1.22 2 1.79 1.11 0.7 2.24 1.4 3.3999 2.11 0.0701-3.13 0.0801-6.26 0.2001-9.37-1.2101-0.9901-2.47-1.84-3.87-2.44-0.6-0.73-1.1901-1.43-1.78-2.12-1.17-0.62-2.33-1.22-3.48-1.81m9.6699 7.13c0.64 3.44-1.2899 7.9301 1.54 10.62 1.02 0.41 2.0701 0.78 3.16 1.1299-0.15-3.72 1.2999-8.56-2.48-10.96-0.7599-0.29-1.5199-0.56-2.22-0.79m6.2701 4.28c-0.1499 2.9-0.21 5.8-0.2999 8.71 1.0599 0.87 2.15 1.75 3.26 2.62 0.49 0.3 1.48 0.89 1.97 1.19 1.09 0.63 2.22 1.29 3.36 1.94-0.1801-3.52 1.55-8.63-2.48-10.53l0.0499-0.27c-0.97-0.39-1.9199-0.77-2.84-1.14-0.15-1.48-2.1601-1.64-3.02-2.52m9.66 7.32c-0.03 2.8-0.01 5.61 0.05 8.43 0.62 0.4 1.85 1.22 2.47 1.62l-0.41 0.77c2.3101 1.79 4.96 3.03 7.71 4.01l0.04 0.54c0.78 0.43 1.5801 0.88 2.4 1.34 0.05-2.78 0.0699-5.55 0.04-8.31-0.5701-0.42-1.7101-1.25-2.28-1.66l0.04-0.33c-0.8501-0.46-1.67-0.91-2.4701-1.35-0.98-0.68-1.9299-1.34-2.88-1.99-0.2999-0.97-0.9399-1.64-1.89-2-0.9599-0.37-1.8999-0.73-2.8199-1.07z" fill="#F9F1CE" stroke="#F9F1CE" stroke-width=".0938"/>
	<path d="m1226.7 437.46c7.8201 6.78 14.92 14.36 22.45 21.47 19.33 18.53 38.31 37.44 57.82 55.78l-1.15 0.2c-1.62 0.3-3.25 0.42-4.85 0.42-24.74-0.13-49.48 0.04-74.21-0.08-0.12-25.93 0-51.86-0.06-77.79z" fill="#F9F1CE" stroke="#F9F1CE" stroke-width=".0938"/>
	<path d="m1018.4 437.34c16.15-0.12 32.3-0.07 48.45 0.03 53.29 0.15 106.58-0.03 159.87 0.09 0.0601 25.93-0.0599 51.86 0.0601 77.79 24.73 0.12 49.47-0.05 74.21 0.08 1.6 0 3.23-0.12 4.85-0.42l1.15-0.2 0.36-0.03c7.2201 0.46 14.45-0.16 21.67 0.47 9.45-0.46 18.95-0.73 28.38 0.27-0.6 46.18 0.1 92.38-0.33 138.56-7.6801-5.59-14.98-11.68-22.57-17.38-1.17-1.06-2.73-0.78-4.12-0.79 0.03 29.46 0.1801 58.92-0.0699 88.38-6-3.51-11.6-7.65-17.59-11.16-0.09 3.15-0.38 6.34-1.45 9.34-1.92 5.5-3.3101 11.34-6.96 16.03-3.5801 5.98-9.92 11.38-17.29 10.81-3.54-0.1-7.1901 0.32-10.62-0.7-12.45-5.5-23.49-13.59-34.92-20.88-16.79-10.58-33.77-20.85-50.45-31.6-7.49-5.1201-15.51-9.58-22.06-15.92-7.9199-6.26-13.73-14.75-18.56-23.51-4.9-8.02-5.61-17.6-8.04-26.48-2.2-7.19-1.11-14.71-1.39-22.08-8.9099-5.37-17.58-11.14-26.39-16.67-22.57-13.42-45.48-26.28-67.7-40.29-19.25-12.17-38.88-23.71-58.45-35.35 9.91-1.08 19.89-0.07 29.82-0.51 0.35-25.95 0.04-51.92 0.14-77.88z" fill="#4591C6" stroke="#4591C6" stroke-width=".0938"/>
	<path d="m1365.2 598.9c2.53 1.77 4.89 3.79 7.09 5.97-0.0299 11.39-0.0299 22.78 0.02 34.17-2.8099-1.12-4.84-3.41-7.11-5.28-0.07-11.62-0.03-23.24 0-34.86z" fill="#4591C6" stroke="#4591C6" stroke-width=".0938"/>
	<path d="m1380.4 612.16c2.26 1.92 4.7799 3.61 6.6799 5.9301 0.41 11.05 0.3 22.17 0.03 33.23-2.38-1.4-4.5601-3.09-6.64-4.86-0.2099-11.43-0.0199-22.87-0.0699-34.3z" fill="#4591C6" stroke="#4591C6" stroke-width=".0938"/>
	<path d="m756.05 619.77c3.48-1.37 7.88-0.75 9.57 2.95-0.03 1.5-0.05 3.01-0.04 4.52-1.14 1.39-2.23 2.83-3.54 4.06-1.96 0.86-4.19 0.32-6.25 0.4-0.79-0.88-1.58-1.75-2.36-2.62-0.27-3.31-0.63-7.28 2.62-9.31z" fill="#4591C6" stroke="#4591C6" stroke-width=".0938"/>
	<path d="m1395.2 625.67c2.28 1.54 4.9399 2.91 6.4301 5.32 0.38 10.95 0.1 21.93 0.12 32.89-2.14-1.79-4.28-3.55-6.4501-5.25-0.38-10.98-0.13-21.98-0.1-32.96z" fill="#4591C6" stroke="#4591C6" stroke-width=".0938"/>
	<path d="m1409.7 638.52c2.14 1.35 4.45 2.63 6.0399 4.67 0.78 2.85 0.3401 5.87 0.4601 8.79-0.14 7.73 0.2699 15.47-0.24 23.19-2.2101-1.54-4.3101-3.23-6.3301-5-0.0099-10.55-0.1299-21.1 0.0701-31.65z" fill="#4591C6" stroke="#4591C6" stroke-width=".0938"/>
	<path d="m811 641.96c1.61-0.47 3.43-0.45 5.09-0.09 1.3199 1.17 2.45 2.6 3.2 4.22 1.11 3.94-1.96 7.7599-5.46 9.17-3.26 1.08-5.77-1.95-7.04-4.52-0.96-3.55 1.71-6.65 4.21-8.78z" fill="#4591C6" stroke="#4591C6" stroke-width=".0938"/>
	<path d="m1423.4 651.06c2.5 0.7 4.3 2.7 6.26 4.3 0.25 10.48 0.0801 20.97 0.0601 31.45-2.2-1.78-4.34-3.62-6.37-5.57 0.1799-10.06 0.08-20.12 0.0499-30.18z" fill="#4591C6" stroke="#4591C6" stroke-width=".0938"/>
	<path d="m862.91 663.68c2.16-0.12 4.32 0.18 6.32 1.06 1.62 3.49 2.31 8.64-1.69 10.8-1.92 2.38-5 1.96-7.23 0.29-1.86-1.87-2.24-4.78-1.46-7.22 1.05-1.87 2.65-3.34 4.06-4.93z" fill="#4591C6" stroke="#4591C6" stroke-width=".0938"/>
	<path d="m1437.2 662.72c2.54 1.8 6.53 3.52 6.0801 7.27-0.1001 9.08 0.21 18.17-0.1901 27.25-2.12-1.27-4.0599-2.78-5.87-4.43-0.13-10.03-0.13-20.06-0.02-30.09z" fill="#4591C6" stroke="#4591C6" stroke-width=".0938"/>
	<path d="m1333.9 663.75c3.96 2.36 8.13 4.73 11.29 8.13 0.17 9.7 0.1901 19.42-0.0499 29.13-3.4501-2.2-6.86-4.47-10.13-6.92-1.4401-0.86-1.05-2.71-1.1801-4.08-0.01-8.75-0.0198-17.51 0.0701-26.26z" fill="#4591C6" stroke="#4591C6" stroke-width=".0938"/>
	<path d="m1450.3 674.03c2.1 1.49 4.09 3.15 5.98 4.93-0.03 9.73 0.23 19.47-0.14 29.19-2-1.44-3.92-2.97-5.8-4.54-0.09-9.86-0.08-19.72-0.04-29.58z" fill="#4591C6" stroke="#4591C6" stroke-width=".0938"/>
	<path d="m1350.4 675.81c3.95 1.89 7.29 4.76 10.93 7.17 0.0099 9.67 0.23 19.35-0.1101 29.02-3.6699-2.4-7.1899-5-10.8-7.47-0.0802-9.58-0.0501-19.15-0.0201-28.72z" fill="#4591C6" stroke="#4591C6" stroke-width=".0938"/>
	<path d="m911.56 685.39c1.94 0 3.89 0 5.84 0.02 0.66 1.15 1.34 2.3 2.03 3.47 0.02 0.8 0.05 2.4 0.07 3.2-1.19 2.61-3.15 5.87-6.49 5.55-1.91 0.28-3.17-1.35-4.56-2.31-0.03-2.19-0.57-4.51 0.25-6.6 0.83-1.21 1.87-2.25 2.86-3.33z" fill="#4591C6" stroke="#4591C6" stroke-width=".0938"/>
	<path d="m1463.2 685.68c1.8199 1.39 4.21 2.38 5.4 4.43 0.36 9.39 0.12 18.82 0.11 28.24-2.12-1.75-5.9301-2.92-5.58-6.2599-0.02-8.8101-0.06-17.61 0.07-26.41z" fill="#4591C6" stroke="#4591C6" stroke-width=".0938"/>
	<path d="m1366.3 687.01c3.5499 2.29 6.97 4.79 10.47 7.18 0.08 9.39 0.13 18.78 0 28.17-3.59-2.12-6.89-4.66-10.36-6.93-0.28-9.47-0.09-18.95-0.11-28.42z" fill="#4591C6" stroke="#4591C6" stroke-width=".0938"/>
	<path d="m1475.5 696.91c2.86 1.2401 6.4099 3.46 5.7899 7.1201-0.1499 8.11 0.12 16.23-0.1499 24.35-2.02-1.21-3.87-2.62-5.6101-4.16-0.0199-9.1101-0.0098-18.21-0.0299-27.31z" fill="#4591C6" stroke="#4591C6" stroke-width=".0938"/>
	<path d="m1381.8 698.7c3.36 1.64 6.46 3.77 9.3899 6.1 1.3501 0.92 0.78 2.75 0.9801 4.14-0.0801 7.94 0.09 15.87-0.1001 23.81-3.5-2.42-7.45-4.42-10.32-7.57-0.12-8.82-0.1899-17.66 0.05-26.48z" fill="#4591C6" stroke="#4591C6" stroke-width=".0938"/>
	<path d="m958.97 705.77c2.2-1.04 4.6-0.18 6.6201 0.9 0.06 2.26 0.09 4.53 0.0699 6.8-1.91 1.8701-3.75 4.89-6.8799 4.1201-4.8901-1.9801-4.5001-9.8501 0.1899-11.82z" fill="#4591C6" stroke="#4591C6" stroke-width=".0938"/>
	<path d="m1487.8 707.61c1.96 1.12 4.1499 2.21 5.37 4.24 0.1699 8.8 0.1699 17.61-0.05 26.41-1.9301-1.23-3.74-2.62-5.4399-4.12 0.0799-8.85-0.1401-17.69 0.1199-26.53z" fill="#4591C6" stroke="#4591C6" stroke-width=".0938"/>
	<path d="m1396.9 709.71c3.66 1.54 6.7 4.15 9.9 6.45-0.0801 8.79 0.01 17.58-0.0601 26.37-3.34-2.07-6.6799-4.15-9.6799-6.67-0.71-8.6401-0.29-17.45-0.16-26.15z" fill="#4591C6" stroke="#4591C6" stroke-width=".0938"/>
	<path d="m1499.4 717.31c1.72 1.4 3.46 2.79 5.24 4.16 0.1899 8.83 0.12 17.67 0.04 26.51-1.8301-1.36-3.5901-2.8-5.28-4.31 0.0499-8.79 0.06-17.58 0-26.36z" fill="#4591C6" stroke="#4591C6" stroke-width=".0938"/>
	<path d="m1411.4 719.91c3.3201 2.19 6.9401 4.15 9.6801 7.07 0.28 8.39 0.17 16.82-0.02 25.22-3.4-1.91-6.53-4.24-9.6899-6.48-2e-4 -8.6-0.0402-17.21 0.0298-25.81z" fill="#4591C6" stroke="#4591C6" stroke-width=".0938"/>
	<path d="m1000.8 733.94c-1.5-3.49 0.63-8.39 4.23-9.53 3.32-1.09 6.05 2.48 5.56 5.55 0.2 2.46-1.7599 4.17-3.14 5.92-2.26-0.37-5.58 0.76-6.65-1.94z" fill="#4591C6" stroke="#4591C6" stroke-width=".0938"/>
	<path d="m1511 727.75c2.1 1.62 5.49 2.99 5.17 6.22 0.03 7.73 0.1899 15.48-0.16 23.21-2.03-1.68-5.33-3.04-5.15-6.15 0.05-7.76-0.1401-15.53 0.14-23.28z" fill="#4591C6" stroke="#4591C6" stroke-width=".0938"/>
	<path d="m1425.6 730.2c3.39 1.96 6.5601 4.29 9.67 6.7-0.11 8.2599 0.0599 16.53-0.1 24.8-3.4301-1.88-6.53-4.27-9.65-6.59 0.07-8.31-0.04-16.61 0.08-24.91z" fill="#4591C6" stroke="#4591C6" stroke-width=".0938"/>
	<path d="m1522.2 737.5c2.01 1.8 5.46 3.23 4.9301 6.52-0.02 7.38 0.13 14.77-0.1001 22.15-1.63-1.13-3.21-2.28-4.7799-3.44-0.87-5.22-0.05-10.5-0.39-15.74-0.1701-3.17 0.03-6.34 0.3399-9.49z" fill="#4591C6" stroke="#4591C6" stroke-width=".0938"/>
	<path d="m1439.5 740.12c3.0601 2.04 6.05 4.18 9.09 6.28 0.1 8.18 0.05 16.37 0.0701 24.56-3.12-2.03-6.1901-4.14-9.1901-6.32 0-8.17-0.0399-16.35 0.03-24.52z" fill="#4591C6" stroke="#4591C6" stroke-width=".0938"/>
	<path d="m1044.5 745.48c1.2999-1.94 3.52-2.81 5.6899-3.37 2.42 1.99 4.3301 5.4 2.38 8.4-1.0499 3.57-5.0699 4.93-8.2 3.08-0.8999-2.57-1.7399-5.77 0.1301-8.11z" fill="#4591C6" stroke="#4591C6" stroke-width=".0938"/>
	<path d="m1532.9 747.02c1.9 1.66 5.3099 2.83 4.87 5.93 0 7.37 0.03 14.74-0.0601 22.12-1.96-1.64-5.15-3-4.9399-6-0.04-7.35-0.0901-14.7 0.13-22.05z" fill="#4591C6" stroke="#4591C6" stroke-width=".0938"/>
	<path d="m1453.1 750.05c2.99 1.89 5.8799 3.95 8.74 6.05-0.03 7.9301 0.12 15.87-0.0701 23.8-2.66-1.94-5.51-3.61-8.04-5.71-1.37-0.99-0.7899-2.86-0.9299-4.25 0.1599-6.63-0.2801-13.28 0.3-19.89z" fill="#4591C6" stroke="#4591C6" stroke-width=".0938"/>
	<path d="m1543.4 756.23c1.83 1.63 4.96 2.82 4.76 5.76-0.0601 7.08 0.3199 14.19-0.26 21.26-1.54-1.09-3.3-2.03-4.36-3.62-0.4-7.78-0.05-15.6-0.14-23.4z" fill="#4591C6" stroke="#4591C6" stroke-width=".0938"/>
	<path d="m1465.9 759.73c3.0499 1.55 6.03 3.34 8.5699 5.68 0.3301 7.56 0.0601 15.16 0.14 22.74-3.25-1.53-6.08-3.7401-8.86-5.95 0.19-7.4901-0.0399-14.98 0.1501-22.47z" fill="#4591C6" stroke="#4591C6" stroke-width=".0938"/>
	<path d="m1084.4 769.12c-0.23-3.35 1.1801-6.43 3.4-8.84 2.38-0.28 4.67 0.28 6.0601 2.39 0.7999 4.41-2.14 9.51-7.03 9.14-0.8201-0.91-1.6301-1.81-2.4301-2.69z" fill="#4591C6" stroke="#4591C6" stroke-width=".0938"/>
	<path d="m1553.8 765.73c1.52 0.97 3.03 2.02 4.5 3.12 0.01 7.63 0.14 15.28-0.0701 22.92-1.6-1.19-3.1299-2.43-4.62-3.72 0.0901-7.44-0.1799-14.89 0.1901-22.32z" fill="#4591C6" stroke="#4591C6" stroke-width=".0938"/>
	<path d="m1478.7 768.81c3.0701 1.7 5.98 3.71 8.61 6.07-0.33 7.35 0.3201 14.74-0.4399 22.07-2.8-1.95-5.55-3.95-8.3101-5.92 0.04-7.41-0.23-14.82 0.14-22.22z" fill="#4591C6" stroke="#4591C6" stroke-width=".0938"/>
	<path d="m1563.6 774.08c1.96 1.54 4.95 2.87 4.5399 5.89 0.01 6.65 0.3301 13.32-0.3099 19.95-1.4401-1.25-2.86-2.5-4.26-3.74-0.03-7.37-0.1-14.74 0.03-22.1z" fill="#4591C6" stroke="#4591C6" stroke-width=".0938"/>
	<path d="m1123.5 784.01c0.54-2.45 1.28-4.91 3.23-6.63 1.55-0.01 3.1001-0.03 4.67-0.06 2.5699 4.01 0.99 9.22-3.21 11.33-1.1901-0.45-2.37-0.88-3.54-1.3-0.39-1.13-0.77-2.24-1.15-3.34z" fill="#4591C6" stroke="#4591C6" stroke-width=".0938"/>
	<path d="m1491 777.83c2.9 1.72 6.29 3.22 8.24 6.07 0.1901 6.8 0.0901 13.63 0.05 20.44-0.1899 0.08-0.5699 0.24-0.76 0.3199-2.5499-1.8-5.52-3.27-7.51-5.66-0.36-7.0399-0.22-14.12-0.02-21.17z" fill="#4591C6" stroke="#4591C6" stroke-width=".0938"/>
	<path d="m1573.3 782.82c1.4399 1 2.85 2.03 4.28 3.08-0.0801 7.21 0.1599 14.42-0.1101 21.63-1.4099-1.39-4.2899-2.0601-4.1699-4.42-0.13-6.76-0.0901-13.53 0-20.29z" fill="#4591C6" stroke="#4591C6" stroke-width=".0938"/>
	<path d="m1503.2 786.19c2.38 1.85 4.85 3.59 7.4401 5.17 0.7899 7.18 0.48 14.44 0.15 21.64-2.64-1.95-5.8401-3.38-7.8601-6-0.25-6.92-0.43-13.9 0.27-20.81z" fill="#4591C6" stroke="#4591C6" stroke-width=".0938"/>
	<path d="m1161.6 796.64c1.0599-1.93 3.0699-3.11 4.42-4.84 1.48 1.03 3.59 1.96 3.5699 4.1 0.8 2.9-1.15 5.28-2.45 7.64-1.89 0.08-3.76 0.06-5.61-0.07-0.0899-2.27-0.4299-4.59 0.0701-6.83z" fill="#4591C6" stroke="#4591C6" stroke-width=".0938"/>
	<path d="m1582.6 791.07c1.65 1.25 4.51 2.27 4.17 4.85 0.0599 6.4 0.11 12.81-0.0901 19.21-1.7-1.39-4.47-2.52-4.1399-5.14-0.08-6.31-0.05-12.62 0.06-18.92z" fill="#4591C6" stroke="#4591C6" stroke-width=".0938"/>
	<path d="m1514.5 794.99c2.8099 1.36 5.2999 3.27 7.84 5.1 0.09 6.8 0.16 13.6-0.0601 20.4-2.6899-1.56-5.2699-3.29-7.7999-5.07 0.0401-6.81 0-13.63 0.02-20.43z" fill="#4591C6" stroke="#4591C6" stroke-width=".0938"/>
	<path d="m1591.6 799.11c1.3199 0.96 3 1.68 3.96 3.1 0.36 6.68 0.17 13.39 0.08 20.08-1.45-0.95-2.8199-1.99-4.1399-3.06 0.1499-6.71-0.0601-13.42 0.0999-20.12z" fill="#4591C6" stroke="#4591C6" stroke-width=".0938"/>
	<path d="m1526.1 802.98c2.42 1.69 4.8401 3.4 7.3301 5.04 0.25 6.63 0.0599 13.28 0.11 19.92-2.66-1.42-5.38-2.85-7.4401-5.07-0.4699-6.6-0.2299-13.27 0-19.89z" fill="#4591C6" stroke="#4591C6" stroke-width=".0938"/>
	<path d="m752.77 817.65c-0.92-4.21 2.6-7.28 5.51-9.64 2.65-0.45 4.74 1.81 6.89 3.02 0.16 2.71 0.93 5.8199-0.98 8.14-1.62 3.53-6.26 4.09-9.31 2.14-0.66-1.27-1.37-2.48-2.11-3.66z" fill="#4591C6" stroke="#4591C6" stroke-width=".0938"/>
	<path d="m1600.5 806.88c1.3199 0.93 2.65 1.87 4 2.82 0.14 6.72 0.08 13.44 0.0599 20.16-1.38-1.09-2.74-2.19-4.08-3.29-0.0399-6.56-0.0699-13.13 0.0201-19.69z" fill="#4591C6" stroke="#4591C6" stroke-width=".0938"/>
	<path d="m1197.4 811.74c1.6801-1.63 3.15-4.29 5.9501-3.37 2.5699 1.67 0.98 5.25 1.26 7.79-0.8201 0.82-1.6101 1.67-2.39 2.52-1.54-0.34-4.3201 0.75-4.77-1.42-0.1901-1.84-0.09-3.69-0.0501-5.52z" fill="#4591C6" stroke="#4591C6" stroke-width=".0938"/>
	<path d="m1537 810.98c2.4299 1.6 4.83 3.28 7.23 4.97 0.11 6.42 0.08 12.85-0.01 19.27-2.75-1.93-7.64-3.1-7.4399-7.21-0.0201-5.68-0.1801-11.37 0.2199-17.03z" fill="#4591C6" stroke="#4591C6" stroke-width=".0938"/>
	<path d="m1609.3 814.61c1.46 1.21 4.03 2.04 3.9199 4.35 0.03 5.83 0.16 11.67-0.1499 17.5-1.3-0.86-2.55-1.71-3.8-2.57 0.01-6.43-0.0501-12.86 0.03-19.28z" fill="#4591C6" stroke="#4591C6" stroke-width=".0938"/>
	<path d="m1547.6 818.99c2.5 1.23 4.8201 2.79 7.0701 4.45 0.1899 6.43 0.02 12.87 0.0499 19.31-2.3199-1.81-4.9099-3.26-7.0699-5.23-0.2301-6.17 0.0099-12.36-0.0501-18.53z" fill="#4591C6" stroke="#4591C6" stroke-width=".0938"/>
	<path d="m1617.5 821.9c1.3199 0.93 2.62 1.89 3.95 2.88-0.1899 6.16 0.0901 12.32-0.21 18.49-1.27-0.88-2.52-1.75-3.75-2.62-0.01-6.26-0.02-12.51 0.01-18.75z" fill="#4591C6" stroke="#4591C6" stroke-width=".0938"/>
	<path d="m1232.9 833.49c-3.65-3.19-1.04-11.32 4.4301-10.17 2.85 1.96 1.13 6.27-0.03 8.89-1.46 0.44-2.8302 1.48-4.4001 1.28z" fill="#4591C6" stroke="#4591C6" stroke-width=".0938"/>
	<path d="m810.34 826.37c2.54-1.98 6.15-0.93 8.1299 1.36 0.04 3.05 0.94 6.72-1.73 8.99-1.47 2.23-4.5 2.14-6.76 1.4301-3.5999-2.8501-3.5399-9.2201 0.3601-11.78z" fill="#4591C6" stroke="#4591C6" stroke-width=".0938"/>
	<path d="m1558.2 826.72c2.36 1.48 5.6799 2.5 6.85 5.2 0.24 5.76 0.25 11.56-0.14 17.32-2.38-1.34-4.63-2.84-6.7999-4.45-0.3001-6.02-0.4001-12.07 0.0899-18.07z" fill="#4591C6" stroke="#4591C6" stroke-width=".0938"/>
	<path d="m1625.6 829.03c1.25 0.91 2.51 1.83 3.79 2.78 0.0599 6.03 0.0599 12.08 0.03 18.12-1.28-0.9-2.55-1.81-3.8-2.7 0-6.07-0.02-12.14-0.02-18.2z" fill="#4591C6" stroke="#4591C6" stroke-width=".0938"/>
	<path d="m1568.2 833.83c2.3 1.29 4.49 2.77 6.6 4.4-0.01 5.94 0.02 11.88-0.0199 17.83-2.2101-1.38-4.52-2.64-6.4-4.42-0.5501-5.91-0.1301-11.89-0.1801-17.81z" fill="#4591C6" stroke="#4591C6" stroke-width=".0938"/>
	<path d="m1266.5 837.26c1.91 0.13 5.49-0.34 5.05 2.65 0.65 3.13-1.65 5.4301-3.67 7.41-1.2999 0.06-2.59 0.12-3.86 0.2 1.36-0.39 2.75-0.75 4.14-1.12-0.91 0.09-2.74 0.28-3.65 0.37-1.64-3.34-0.6-7.01 1.99-9.51z" fill="#4591C6" stroke="#4591C6" stroke-width=".0938"/>
	<path d="m1633.6 836.06c1.22 1.11 3.5 1.85 3.58 3.83 0.2101 5.44 0.16 10.91-0.0699 16.36-1.4501-1.09-3.9401-1.89-3.59-4.15-0.0501-5.35-0.0401-10.7 0.0799-16.04z" fill="#4591C6" stroke="#4591C6" stroke-width=".0938"/>
	<path d="m859.55 844.47c1.69-1.37 2.86-4.15 5.43-3.8199 2.31-0.4901 3.77 1.71 4.7 3.47 1.28 2.26 0.07 4.8-0.38 7.12-0.73 0.67-1.45 1.34-2.16 2.02-1.05 0.37-2.09 0.75-3.12 1.13-1.12-0.38-2.23-0.74-3.33-1.08-1.87-2.6101-1.31-5.8601-1.14-8.8401z" fill="#4591C6" stroke="#4591C6" stroke-width=".0938"/>
	<path d="m1577.9 840.89c2.23 1.27 4.37 2.68 6.52 4.12 0.25 5.82 0.23 11.64 0.0499 17.46-2.2-1.3799-4.72-2.43-6.3999-4.45-0.57-5.68-0.14-11.43-0.17-17.13z" fill="#4591C6" stroke="#4591C6" stroke-width=".0938"/>
	<path d="m1641.4 842.84c1.0701 0.78 2.25 1.49 3.1801 2.5099 0.51 5.84 0.1599 11.73 0.11 17.59-1.13-1.05-2.41-1.96-3.25-3.23-0.2901-5.6099-0.0501-11.25-0.0401-16.87z" fill="#4591C6" stroke="#4591C6" stroke-width=".0938"/>
	<path d="m1587.5 847.96c2.24 1.08 4.34 2.48 6.3199 4.02 0 5.67 0.0701 11.34-0.0499 17.01-2.05-1.42-4.1101-2.82-6.2101-4.14-0.1598-5.63-0.0799-11.26-0.0599-16.89z" fill="#4591C6" stroke="#4591C6" stroke-width=".0938"/>
	<path d="m1648.8 849.76c1.3199 0.74 3.1799 1.32 3.4099 3.13 0.1901 5.28 0.13 10.59-0.1 15.88-1.1599-0.9-2.3099-1.73-3.2799-2.79-0.34-5.4-0.16-10.82-0.03-16.22z" fill="#4591C6" stroke="#4591C6" stroke-width=".0938"/>
	<path d="m1295.5 852.83c1.61-1.54 3.48-2.92 5.88-2.51 0.3401 1.25 0.7201 2.5 1.13 3.75-0.75 3.06-2.6599 5.61-5.64 6.79-2.32-2.09-1.38-5.33-1.37-8.03z" fill="#4591C6" stroke="#4591C6" stroke-width=".0938"/>
	<path d="m1596.9 854.79c2.21 1.09 4.29 2.47 6.24 4.01-0.05 5.42 0.21 10.85-0.1801 16.27-2.1-1.5-5.0399-2.43-6.13-4.9-0.25-5.12-0.0799-10.26 0.0701-15.38z" fill="#4591C6" stroke="#4591C6" stroke-width=".0938"/>
	<path d="m1656.2 855.82c1.0701 0.91 2.15 1.83 3.25 2.77-0.23 5.23 0.08 10.48-0.23 15.72-0.92-0.87-2.72-1.05-2.96-2.43-0.71-5.32-0.3699-10.72-0.06-16.06z" fill="#4591C6" stroke="#4591C6" stroke-width=".0938"/>
	<path d="m908.33 865.13c-0.53-3.44 1.4-6.27 3.46-8.77 1.54-0.03 3.1-0.06 4.66-0.09 2.9 3 3.37 8.65-0.21 11.31-1.5 1.36-3.66 0.95-5.48 1.14-0.82-1.22-1.61-2.41-2.43-3.59z" fill="#4591C6" stroke="#4591C6" stroke-width=".0938"/>
	<path d="m1605.8 861c1.99 1.3 4.16 2.43 5.85 4.15 0.3601 5.28 0.0701 10.58 0.14 15.87-2.01-1.27-4.1699-2.37-5.7999-4.11-0.6401-5.26-0.1901-10.62-0.1901-15.91z" fill="#4591C6" stroke="#4591C6" stroke-width=".0938"/>
	<path d="m1663.2 861.91c1.04 0.95 2.09 1.91 3.16 2.89-0.1901 4.84 0.02 9.68-0.12 14.52-1.04 1.21-2.23-0.9-3.14-1.35 0.0401-5.36-0.1-10.71 0.1-16.06z" fill="#4591C6" stroke="#4591C6" stroke-width=".0938"/>
	<path d="m1324.2 867.93c1.3199-2.63 3.58-6.01 7.01-4.16 1.28 3.18-0.25 7.11-3.11 8.88-3.12 0.74-3.9601-2.33-3.9-4.72z" fill="#4591C6" stroke="#4591C6" stroke-width=".0938"/>
	<path d="m1614.5 867.31c1.92 1.28 3.88 2.56 5.87 3.78 0.26 5.2599 0.0601 10.52 0.12 15.78-2.04-1.29-4.29-2.35-5.85-4.2-0.34-5.12 0.02-10.25-0.14-15.36z" fill="#4591C6" stroke="#4591C6" stroke-width=".0938"/>
	<path d="m1670.2 868.02c0.99 0.93 1.98 1.88 3.01 2.84-0.38 5.02 0.6901 10.21-0.8 15.1-0.87-1.27-2.72-2.18-2.5399-3.91-0.1501-4.68-0.2401-9.38 0.3299-14.03z" fill="#4591C6" stroke="#4591C6" stroke-width=".0938"/>
	<path d="m958.7 871.29c2.71-0.33 5.46-0.22 7.05 2.34 0.65 4.14-1.71 10.27-6.87 9.04-4.29-0.41-2.22-6.12-2.57-8.99 0.79-0.8 1.59-1.6 2.39-2.39z" fill="#4591C6" stroke="#4591C6" stroke-width=".0938"/>
	<path d="m1623.3 873.78c1.88 1.08 3.7 2.27 5.5 3.52 0.03 4.98 0.03 9.96-0.05 14.94-1.95-0.96-3.7899-2.11-5.49-3.4-0.02-5.03-0.07-10.04 0.04-15.06z" fill="#4591C6" stroke="#4591C6" stroke-width=".0938"/>
	<path d="m1676.6 874.05c1 0.71 2.01 1.43 3.05 2.16 0.09 4.96 0.11 9.92 0.01 14.88-1.15-0.88-3.1901-1.41-3.0701-3.16-0.1399-4.62-0.0298-9.25 0.0101-13.88z" fill="#4591C6" stroke="#4591C6" stroke-width=".0938"/>
	<path d="m1353.9 884.16c-2.08-3.8199 0.58-10.09 5.62-8.75 1.0701 3.56-0.83 10.64-5.62 8.75z" fill="#4591C6" stroke="#4591C6" stroke-width=".0938"/>
	<path d="m1631.4 879.86c1.9 0.91 3.7 2.03 5.4301 3.28 0.61 4.93 0.0199 9.88-0.02 14.83-1.78-1.36-4.2001-2.24-5.3301-4.1899-0.2799-4.6301 0.02-9.2801-0.08-13.92z" fill="#4591C6" stroke="#4591C6" stroke-width=".0938"/>
	<path d="m1683.2 879.84c1.09 0.81 2.72 1.39 2.8201 3.03 0.3199 4.46 0.08 8.95 0.0299 13.44-0.95-0.51-1.83-1.07-2.65-1.68-0.64-4.9-0.19-9.87-0.2-14.79z" fill="#4591C6" stroke="#4591C6" stroke-width=".0938"/>
	<path d="m1003.4 885.44c1.92-2.2 5.76-1.07 6.55 1.66 1.43 3.21-0.41 6.44-2.52 8.81-2.01-0.12-4.02-0.21-6.02-0.31 0.01-3.4-1.39-7.88 1.99-10.16z" fill="#4591C6" stroke="#4591C6" stroke-width=".0938"/>
	<path d="m1689.4 885.28c0.91 0.6 1.8201 1.1899 2.79 1.81 0.24 4.66 0.15 9.3199 0.0601 13.99-0.66-0.24-1.98-0.7-2.64-0.93-0.44-4.95-0.16-9.92-0.2101-14.87z" fill="#4591C6" stroke="#4591C6" stroke-width=".0938"/>
	<path d="m1639.6 885.67c1.74 1.03 3.8101 1.82 5.0701 3.52 0.4 4.64 0.1 9.32 0.09 13.98-1.76-1.05-3.49-2.12-5.21-3.17-0.1901-4.78-0.2102-9.56 0.0499-14.33z" fill="#4591C6" stroke="#4591C6" stroke-width=".0938"/>
	<path d="m1382.6 887.23c1.3199 0.08 2.6699 0.19 4.0199 0.32 0.2201 2.96-0.3199 5.86-2.2999 8.16-1-0.02-2.99-0.07-3.99-0.09-0.36-3.06 0.25-6.01 2.27-8.39z" fill="#4591C6" stroke="#4591C6" stroke-width=".0938"/>
	<path d="m1695.6 891.01c0.91 0.6 2 1.02 2.7101 1.96 0.3199 4.46 0.0699 8.95-0.03 13.43-0.9399-0.58-1.8101-1.22-2.59-1.9301-0.33-4.48-0.08-8.98-0.0901-13.46z" fill="#4591C6" stroke="#4591C6" stroke-width=".0938"/>
	<path d="m1647.4 904.76c-0.33-4.51-0.21-9.05 0.0801-13.55 1.65 1.09 3.33 2.21 5.02 3.31 0.02 4.53 0 9.05 0.0599 13.59-1.8599-0.81-4.1999-1.47-5.16-3.35z" fill="#4591C6" stroke="#4591C6" stroke-width=".0938"/>
	<path d="m1701.5 896.31c0.4601 0.09 1.39 0.28 1.86 0.37 1.87 4.59 0.67 9.7 0.88 14.53-0.9199-0.58-1.8099-1.14-2.6799-1.69-0.0802-4.41-0.1001-8.81-0.0601-13.21z" fill="#4591C6" stroke="#4591C6" stroke-width=".0938"/>
	<path d="m1654.8 896.78c1.7599 0.99 3.7 1.83 5.11 3.37 0.5399 4.46 0.14 8.98 0.1499 13.48-1.7699-1.12-3.6399-2.11-5.12-3.58-0.47-4.41-0.1399-8.85-0.1399-13.27z" fill="#4591C6" stroke="#4591C6" stroke-width=".0938"/>
	<path d="m1046.7 898.22c1.5901 0 3.2001-0.0099 4.8201-0.0099 1.52 2.72 1.77 6.5099-0.11 9.12-1.53 2.37-4.73 1.14-7.02 1.27-0.14-2.64-0.1801-5.27-0.14-7.89 0.81-0.8401 1.6199-1.6701 2.4499-2.4901z" fill="#4591C6" stroke="#4591C6" stroke-width=".0938"/>
	<path d="m1408.6 898.17c0.96 0.09 2.87 0.27 3.83 0.36-0.0499 2.29-0.46 4.55-1.11 6.7599-1.53 0.91-3.24 1.43-4.99 1.55-0.51-3.1499 0.12-6.2499 2.27-8.6699z" fill="#4591C6" stroke="#4591C6" stroke-width=".0938"/>
	<path d="m1707.4 900.96c0.88 0.91 2.42 1.53 2.55 2.99 0.58 4.04-0.01 8.12-0.2101 12.17-0.9099-0.95-2.5599-1.63-2.4099-3.15-0.16-4.01-0.03-8.02 0.07-12.01z" fill="#4591C6" stroke="#4591C6" stroke-width=".0938"/>
	<path d="m1662.3 902.03c1.6599 1.24 3.9199 2.0099 4.98 3.89 0.2999 4.1 0.08 8.22-0.02 12.33-1.6801-0.99-3.98-1.58-4.86-3.44-0.3601-4.25-0.0902-8.52-0.1-12.78z" fill="#4591C6" stroke="#4591C6" stroke-width=".0938"/>
	<path d="m1713.1 905.96c0.78 0.75 1.62 1.48 2.3501 2.35 0.36 4.17 0.0599 8.38 0.12 12.57-0.9301-0.89-2.01-1.66-2.63-2.78-0.3801-4.04-0.2701-8.12 0.1599-12.14z" fill="#4591C6" stroke="#4591C6" stroke-width=".0938"/>
	<path d="m1669.4 907.15c1.71 1.12 3.4 2.3 5.0399 3.56-0.1499 4.17-0.0199 8.34-0.25 12.51-1.6599-1.06-3.24-2.2-4.7799-3.3799 0.1-4.23 0.1-8.47-0.01-12.69z" fill="#4591C6" stroke="#4591C6" stroke-width=".0938"/>
	<path d="m1430.2 915.22c0.96-2.86 2.09-5.92 5.01-7.34 3.1 3.1 1 7.88-2.12 10.07-0.98-0.92-1.94-1.83-2.89-2.73z" fill="#4591C6" stroke="#4591C6" stroke-width=".0938"/>
	<path d="m1085.5 912.86c1.0901-0.88 2.1801-1.77 3.37-2.54 2.12-0.65 3.54 1.1 4.9501 2.36-0.0701 3.04-0.8301 6.11-2.7201 8.57-1.7599 0.69-3.6799 0.2-5.48 0.11-0.36-2.83-0.4001-5.68-0.12-8.5z" fill="#4591C6" stroke="#4591C6" stroke-width=".0938"/>
	<path d="m1718.4 910.93c0.6799 0.43 1.35 0.89 2.0399 1.38 0.7001 4.21 1.02 8.57 0.3 12.81-0.95-0.94-2.53-1.61-2.3199-3.16-0.19-3.68-0.06-7.36-0.02-11.03z" fill="#4591C6" stroke="#4591C6" stroke-width=".0938"/>
	<path d="m1676.4 912.84c1.88 0.5699 3.53 1.6299 5 2.95-0.14 3.96-0.03 7.92-0.09 11.89-1.8101-0.76-3.41-1.81-4.89-3.04 0.0301-3.94-0.04-7.87-0.02-11.8z" fill="#4591C6" stroke="#4591C6" stroke-width=".0938"/>
	<path d="m1723.9 915.66c1.01 0.8 2.5499 1.63 2.3099 3.23 0.17 3.43 0.04 6.87-0.12 10.3-1-0.84-2.83-1.51-2.4299-3.14-0.13-3.47-0.0901-6.94 0.24-10.39z" fill="#4591C6" stroke="#4591C6" stroke-width=".0938"/>
	<path d="m1683.3 917.58c1.4901 0.82 2.9801 1.66 4.4801 2.53 0.0399 4.05 0.0699 8.11 0 12.17-1.4801-0.9-2.9601-1.79-4.41-2.67-0.0701-4.02-0.11-8.03-0.0701-12.03z" fill="#4591C6" stroke="#4591C6" stroke-width=".0938"/>
	<path d="m1454.3 926.51c-0.6-3.74 1.3501-7.15 4.89-8.49 1.9601 2.85 0.77 5.97-0.89 8.61-1.3399-0.04-2.6899-0.09-4-0.12z" fill="#4591C6" stroke="#4591C6" stroke-width=".0938"/>
	<path d="m1729 920.69c0.5601 0.33 1.7001 0.99 2.27 1.32 0.37 3.76 0.13 7.55-0.0499 11.33-1.05-0.89-2.7001-1.61-2.4-3.26-0.1701-3.14-1e-4 -6.27 0.1799-9.39z" fill="#4591C6" stroke="#4591C6" stroke-width=".0938"/>
	<path d="m1690.1 922.06c1.42 0.99 2.8501 1.99 4.29 3 0.03 3.89 0.04 7.78-0.12 11.67-1.47-1.13-3.76-1.67-4.34-3.61-0.37-3.69-0.13-7.39 0.17-11.06z" fill="#4591C6" stroke="#4591C6" stroke-width=".0938"/>
	<path d="m1124.2 925.75c1.61-2.5 4.02-4.21 7.14-3.3 1.34 2.84 1.13 5.92 0.13 8.83-1.76 1.6-4.0499 3.34-6.41 1.72-1.3899-2.13-0.6399-4.87-0.86-7.25z" fill="#4591C6" stroke="#4591C6" stroke-width=".0938"/>
	<path d="m1734.2 924.71c0.8601 0.89 2.3401 1.67 2.0701 3.2 0.12 3.1201-0.01 6.26-0.15 9.39-1.37-0.7-2.64-1.57-2.27-3.3-0.17-3.11 0.05-6.21 0.3499-9.29z" fill="#4591C6" stroke="#4591C6" stroke-width=".0938"/>
	<path d="m1696.3 926.79c1.49 0.92 2.96 1.86 4.4399 2.85-0.0599 3.74-0.0499 7.48-0.11 11.23-1.45-0.85-2.83-1.66-4.23-2.49-0.1399-3.86-0.1499-7.73-0.0999-11.59z" fill="#4591C6" stroke="#4591C6" stroke-width=".0938"/>
	<path d="m1477.1 935.67c-0.01-2.96 0.75-6.64 4.03-7.6 2.87 1.62 0.73 5.17 0.25 7.55-1.44 0.01-2.88 0.02-4.28 0.05z" fill="#4591C6" stroke="#4591C6" stroke-width=".0938"/>
	<path d="m1738.7 937.98c0.17-3.03-0.9299-6.58 0.99-9.19 2.41 3.73 1.51 8.33 1.1901 12.5-1.2201-0.73-2.5702-1.66-2.1801-3.31z" fill="#4591C6" stroke="#4591C6" stroke-width=".0938"/>
	<path d="m1702.8 943c-0.0601-3.74-0.4701-7.55 0.6299-11.18 1.05 0.71 2.1201 1.43 3.2101 2.16 0.08 3.65 0.09 7.31 0.15 10.98-1.3401-0.69-2.6701-1.34-3.99-1.96z" fill="#4591C6" stroke="#4591C6" stroke-width=".0938"/>
	<path d="m1163.7 934.23c1.66 0.04 3.3401 0.07 5.03 0.13-0.1799 3.31 1.3101 8.32-2.6 9.98-0.87 0.0699-2.6 0.21-3.47 0.28-2.0901-3.31-1.37-7.47 1.04-10.39z" fill="#4591C6" stroke="#4591C6" stroke-width=".0938"/>
	<path d="m1708.6 935.73c1.24 1.02 3.47 1.38 3.9299 3.14 0.29 3.39 0.0701 6.81 0.05 10.23-1.4399-0.93-2.78-1.84-4.16-2.7599 0.0701-3.5501 0.0301-7.0901 0.1801-10.61z" fill="#4591C6" stroke="#4591C6" stroke-width=".0938"/>
	<path d="m1498.4 945.66c-0.14-3.12 0.51-6.85 3.63-8.35 2.7999 0.66 1.2899 3.98 1.5399 5.99-1.3999 1.5-3 2.74-5.1699 2.36z" fill="#4591C6" stroke="#4591C6" stroke-width=".0938"/>
	<path d="m1714.5 939.95c1.37 0.82 2.78 1.74 4.17 2.63-0.17 3.44-0.15 6.89-0.22 10.35-1.42-0.85-2.76-1.7-4.1-2.58 0.1-3.47 0.05-6.94 0.15-10.4z" fill="#4591C6" stroke="#4591C6" stroke-width=".0938"/>
	<path d="m1720.3 944.01c1.3099 0.93 2.79 1.71 3.83 3 0.3201 3.23 0.09 6.48 0.04 9.73-1.3101-0.84-3.16-1.22-3.8201-2.72-0.3099-3.33-0.0899-6.68-0.0499-10.01z" fill="#4591C6" stroke="#4591C6" stroke-width=".0938"/>
	<path d="m1198.6 946.61c1.16-2.21 3.91-1.02 5.89-1.23 0.04 2.29 0.08 4.58 0.13 6.88-1.6 1.39-3.21 4.53-5.71 2.95-2.52-2-1.91-6.2-0.31-8.6z" fill="#4591C6" stroke="#4591C6" stroke-width=".0938"/>
	<path d="m1519.3 953.87c-0.4301-3.34 0.9399-6.49 3.98-8.07 2.65 3.02 0.45 8.96-3.98 8.07z" fill="#4591C6" stroke="#4591C6" stroke-width=".0938"/>
	<path d="m1725.8 948.28c1.15 0.59 2.3099 1.1899 3.48 1.81 0.02 3.34-0.08 6.68 0.05 10.03-1.2101-0.61-2.49-1.07-3.37-2.07-0.44-3.25-0.2-6.52-0.16-9.77z" fill="#4591C6" stroke="#4591C6" stroke-width=".0938"/>
	<path d="m1731 952.21c1.4 0.6 2.6599 1.45 3.87 2.44-0.12 3.11-0.13 6.24-0.2001 9.37-1.1599-0.71-2.2899-1.41-3.3999-2.11 0.1301-3.24 0.21-6.49-0.27-9.7z" fill="#4591C6" stroke="#4591C6" stroke-width=".0938"/>
	<path d="m1232.8 956.8c1.0599-2.16 3.73-1.13 5.62-1.17 0.45 3.48 0.34 7.13-2.17 9.84-1.33 0.05-2.65 0.1201-3.9399 0.21-1.25-2.84-1.1801-6.23 0.4899-8.88z" fill="#4591C6" stroke="#4591C6" stroke-width=".0938"/>
	<path d="m1538.4 961.17c0.78-2.7 1.65-6.66 5.36-6.04-0.0699 1.67-0.12 3.36-0.15 5.05-1.3899 1.46-3.81 3.78-5.21 0.99z" fill="#4591C6" stroke="#4591C6" stroke-width=".0938"/>
	<path d="m1737 966.03c-0.34-3.29-0.64-6.71 0.6801-9.83 3.7799 2.4 2.33 7.24 2.48 10.96-1.0901-0.35-2.1401-0.72-3.1601-1.13z" fill="#4591C6" stroke="#4591C6" stroke-width=".0938"/>
	<path d="m1741.7 959.69c0.86 0.88 2.87 1.04 3.02 2.52 0.12 2.93 0 5.87-0.0599 8.81-1.11-0.87-2.2001-1.75-3.26-2.62 0.0899-2.91 0.15-5.81 0.2999-8.71z" fill="#4591C6" stroke="#4591C6" stroke-width=".0938"/>
	<path d="m1558.9 971.05c-3.08-2.94-0.3799-6.92 2.28-8.94 2.3901 3.13 0.5801 6.9-2.28 8.94z" fill="#4591C6" stroke="#4591C6" stroke-width=".0938"/>
	<path d="m1746.6 972.21c0.0499-2.89 0.29-5.77 0.88-8.59 4.03 1.9 2.2999 7.01 2.48 10.53-1.14-0.65-2.27-1.31-3.36-1.94z" fill="#4591C6" stroke="#4591C6" stroke-width=".0938"/>
	<path d="m1264.2 974.46c-0.14-3.22-0.35-8.38 3.7-9.07 2.8201-0.87 2.9801 2.72 2.77 4.57 0.4501 2.71-1.88 4.33-3.59 5.95-0.72-0.36-2.16-1.09-2.88-1.45z" fill="#4591C6" stroke="#4591C6" stroke-width=".0938"/>
	<path d="m1751.4 967.01c0.92 0.34 1.86 0.7 2.8199 1.07 0.3 2.68 0.38 5.39 0.16 8.09-0.12 0.22-0.34 0.67-0.46 0.89-0.62-0.4-1.85-1.22-2.47-1.62-0.0599-2.82-0.0799-5.63-0.0499-8.43z" fill="#4591C6" stroke="#4591C6" stroke-width=".0938"/>
	<path d="m1756.1 970.08c0.9501 0.65 1.9 1.31 2.88 1.99-0.0599 2.68-0.12 5.37-0.23 8.06-3.76-1.97-2.14-6.65-2.65-10.05z" fill="#4591C6" stroke="#4591C6" stroke-width=".0938"/>
	<path d="m1575.3 977.48c0.0699-3.08 1.28-5.96 4.04-7.55 0.6399 2.62 0.6 5.4-0.8101 7.77-1.0999-0.08-2.1699-0.15-3.2299-0.22z" fill="#4591C6" stroke="#4591C6" stroke-width=".0938"/>
	<path d="m1761.2 981.84c-0.2599-2.71-0.1899-5.42 0.2001-8.09 0.5699 0.41 1.71 1.24 2.28 1.66 0.0299 2.76 0.01 5.53-0.04 8.31-0.8199-0.46-1.62-0.91-2.4-1.34l-0.0401-0.54z" fill="#4591C6" stroke="#4591C6" stroke-width=".0938"/>
	<path d="m1297.3 975.47c1.3601-1.6899 4.62-0.91 4.3401 1.54 0.6599 3.17-0.89 8.39-4.9401 7.58-2.3499-2.21-1.8499-7.06 0.6-9.12z" fill="#4591C6" stroke="#4591C6" stroke-width=".0938"/>
	<path d="m1594.7 978.18c1.1101 0.22 2.2001 0.6 3.0701 1.44-0.85 1.62-1.62 3.29-2.38 4.95-1.01-0.01-2 0-2.97 0.03 0.0399-0.92 0.09-1.83 0.15-2.73 0.7-1.23 1.41-2.47 2.1299-3.69z" fill="#4591C6" stroke="#4591C6" stroke-width=".0938"/>
	<path d="m1326.6 984.47c1.03-0.06 3.1001-0.18 4.14-0.24 0.02 2.36 0 4.74-0.01 7.12-1.5 1.04-3.1 3.23-5.1499 2.04-0.6901-3.03-0.1801-6.12 1.0199-8.92z" fill="#4591C6" stroke="#4591C6" stroke-width=".0938"/>
	<path d="m1608.3 991.66c0.5599-2.65 1.49-7.18 5.22-6.16 0.46 3.21-1.4599 7.2-5.22 6.16z" fill="#4591C6" stroke="#4591C6" stroke-width=".0938"/>
	<path d="m1626.2 992.34c0.67 0 2-0.02 2.66-0.03-0.33 1.81-0.75 3.6-1.25 5.37-1.1899-0.03-2.36-0.04-3.52-0.04 0.53-1.83 1.2199-3.61 2.11-5.3z" fill="#4591C6" stroke="#4591C6" stroke-width=".0938"/>
	<path d="m1353.5 1001.2c-0.67-3.67 0.38-7.12 3.51-9.28 4.55 2.4 2.39 8.22-0.79 10.81-0.68-0.38-2.04-1.15-2.72-1.53z" fill="#4591C6" stroke="#4591C6" stroke-width=".0938"/>
	<path d="m1641.9 997.77c0.41-0.06 1.23-0.17 1.64-0.23 0.4399 2.76-0.38 5.32-2.2 7.42-3.52-1.19-0.61-5.16 0.56-7.19z" fill="#4591C6" stroke="#4591C6" stroke-width=".0938"/>
	<path d="m1381.9 1001.6c0.9399-0.11 2.8199-0.33 3.76-0.44 1.72 3.35 0.5699 7.44-2.5601 9.48-0.6899-0.35-2.08-1.06-2.77-1.42-0.0699-2.65 0.3602-5.25 1.5701-7.62z" fill="#4591C6" stroke="#4591C6" stroke-width=".0938"/>
	<path d="m1653.7 1006.1c1.1901-0.95 2.41-1.89 3.64-2.8199 0.64 3.1899-0.03 6.33-2.55 8.52-1.6499-1.4701-1.04-3.7901-1.09-5.7001z" fill="#4591C6" stroke="#4591C6" stroke-width=".0938"/>
	<path d="m1406.4 1017.5c-0.64-3.5699 0.38-9.12 5.22-8.3199 0.2 2.9 0.33 5.95-1.29 8.54-0.98-0.0501-2.94-0.1601-3.93-0.2201z" fill="#4591C6" stroke="#4591C6" stroke-width=".0938"/>
	<path d="m1668.7 1010.6c0.97-0.01 1.9601 0 2.97 0.03-0.5399 1.58-1.0299 3.2-1.5099 4.82-1.02 0.1-2.02 0.21-3 0.31 0.4399-1.74 0.9499-3.47 1.5399-5.16z" fill="#4591C6" stroke="#4591C6" stroke-width=".0938"/>
	<path d="m1680 1019.3c1.09-1.5 2.14-3.03 3.04-4.65 0.4 0.57 0.84 1.15 1.2999 1.74 0.28 2.73-1.5 5.83-4.6 5.2401 0.0701-0.5801 0.2001-1.7501 0.2601-2.3301z" fill="#4591C6" stroke="#4591C6" stroke-width=".0938"/>
	<path d="m1432.5 1017.3c1.38 0.02 2.77 0.05 4.1801 0.11 0.3099 3.43-0.79 6.71-3.76 8.67-2.58-2.35-1.46-5.99-0.4201-8.78z" fill="#4591C6" stroke="#4591C6" stroke-width=".0938"/>
	<path d="m1693.7 1021.7c0.5199-0.13 1.5599-0.39 2.08-0.52-0.12 1.69-0.21 3.41-0.3 5.13-0.5399 0.0801-1.63 0.26-2.1799 0.34 0.1099-1.66 0.2499-3.31 0.3999-4.95z" fill="#4591C6" stroke="#4591C6" stroke-width=".0938"/>
	<path d="m1455.8 1024.6c1.3101-0.1801 2.62-0.35 3.9801-0.48-0.0901 2.03-0.1901 4.0699-0.3 6.12-0.76 0.74-1.51 1.49-2.24 2.26-0.41 0.01-1.25 0.03-1.67 0.04-1.7701-2.51-0.67-5.35 0.2299-7.94z" fill="#4591C6" stroke="#4591C6" stroke-width=".0938"/>
	<path d="m1703.6 1032.1c0.75-2.55 1.35-6.41 4.9299-5.8199-0.3999 2.1299-1.3199 4.1-2.4199 5.96-0.86-0.0601-1.7-0.1101-2.51-0.1401z" fill="#4591C6" stroke="#4591C6" stroke-width=".0938"/>
	<path d="m1718.3 1031.5c0.2699-0.3301 0.8099-1.01 1.08-1.3401 0.1799 2.76 0.27 6.9301-3.67 6.5 0.02-1.3099 0.0601-2.61 0.12-3.8799 0.8099-0.43 1.6299-0.86 2.47-1.28z" fill="#4591C6" stroke="#4591C6" stroke-width=".0938"/>
	<path d="m1477.3 1038.6c-0.25-3.4399 0.42-6.98 3.8101-8.62 1.89 2.59 1.08 5.65 0.14 8.4301-1.3301 0.0299-2.6501 0.0899-3.9501 0.1899z" fill="#4591C6" stroke="#4591C6" stroke-width=".0938"/>
	<path d="m1727.1 1040.8c0.22-2.2799 0.6-4.5499 1.9-6.48 0.77 1.46 1.14 3.05 1.3099 4.71-1.0999 0.57-2.1499 1.19-3.2099 1.77z" fill="#4591C6" stroke="#4591C6" stroke-width=".0938"/>
	<path d="m1499.7 1046c-2.34-2.96-0.45-9.1699 3.74-8.3899 0.74 3.1799 0.01 7.5699-3.74 8.3899z" fill="#4591C6" stroke="#4591C6" stroke-width=".0938"/>
	<path d="m1737.9 1040.5c0.87-0.05 1.77-0.09 2.6899-0.12-0.47 1.64-0.9299 3.28-1.35 4.95-0.9299-0.02-1.84-0.02-2.72 0 0.4901-1.6 0.9101-3.23 1.3801-4.83z" fill="#4591C6" stroke="#4591C6" stroke-width=".0938"/>
	<path d="m754.31 1043.8c0.82-0.8301 1.64-1.65 2.46-2.4601 2.7 0.02 6.4-0.5699 7.59 2.6001 0.58 3.39 0.96 8.0299-2.71 9.86-2.47 1.83-5.38 0.25-7.35-1.48-0.1-2.85-0.12-5.69 0.01-8.52z" fill="#4591C6" stroke="#4591C6" stroke-width=".0938"/>
	<path d="m1519.4 1051.5c-0.1001-3.28 0.1599-7.15 3.7699-8.4501 1.95 2.8801 0.85 9.6901-3.7699 8.4501z" fill="#4591C6" stroke="#4591C6" stroke-width=".0938"/>
	<path d="m1748.6 1044.4c0.41 0.04 1.21 0.12 1.61 0.16-0.08 1.0699-0.14 2.1599-0.17 3.26-1.0699 0.8799-2.09 1.7799-3.09 2.73-0.27-1.02-0.66-1.9401-1.1899-2.78 0.36-0.0601 1.1-0.1801 1.46-0.23 0.4399-1.06 0.8999-2.11 1.3799-3.14z" fill="#4591C6" stroke="#4591C6" stroke-width=".0938"/>
	<path d="m810.71 1048.4c1.66-0.03 3.35-0.28 5.0099 0.1 4.73 3.1 3.48 12.25-2.5099 13.08-2.05 0.47-3.45-1.0599-4.82-2.23-0.26-2.13-1.03-4.27-0.66-6.41 0.75-1.6701 1.91-3.0901 2.98-4.54z" fill="#4591C6" stroke="#4591C6" stroke-width=".0938"/>
	<path d="m1540.4 1050.3c1.11 0.0599 2.24 0.12 3.39 0.1799 0.0499 2.62-0.78 5.0601-2.26 7.2001-0.55-0.03-1.65-0.0801-2.1901-0.11-0.0999-2.4799 0.08-4.9701 1.0601-7.27z" fill="#4591C6" stroke="#4591C6" stroke-width=".0938"/>
	<path d="m861.94 1055.7c2.34 0.04 5.95-1.37 6.91 1.7101 2.2 3.73 0.46 11.06-4.79 10.39-3.89 0.5-5.8-4.25-5.29-7.49 1.09-1.51 2.14-3.06 3.17-4.6101z" fill="#4591C6" stroke="#4591C6" stroke-width=".0938"/>
	<path d="m1558.2 1063c-1.45-2.7001 0.39-8.65 4.11-6.23 0.2 2.7701-0.85 6.16-4.11 6.23z" fill="#4591C6" stroke="#4591C6" stroke-width=".0938"/>
	<path d="m1576.7 1069.2c-1.92-2.75-0.92-7.72 2.89-8.05 0 1.76-0.01 3.54-0.03 5.3201-0.97 0.8998-1.9199 1.8099-2.86 2.7299z" fill="#4591C6" stroke="#4591C6" stroke-width=".0938"/>
	<path d="m911.57 1062.2c1.97 0.38 4.77-0.7101 5.98 1.45 2.21 3.51 1.13 8.6-2.36 10.93-0.88 0.01-2.63 0.02-3.51 0.0299-0.79-0.7899-1.58-1.5699-2.36-2.3199-0.11-3.5101-0.64-7.4901 2.25-10.09z" fill="#4591C6" stroke="#4591C6" stroke-width=".0938"/>
	<path d="m1594.5 1066.5c0.52-0.02 1.58-0.0601 2.11-0.08 0.08 2.4199-0.11 4.87-1.29 7.0399-0.49 0.04-1.48 0.12-1.98 0.16-0.05-2.4398-0.07-4.9398 1.16-7.1199z" fill="#4591C6" stroke="#4591C6" stroke-width=".0938"/>
	<path d="m956.6 1070.9c0.75-0.8501 1.52-1.6901 2.3-2.52 1.45 0.02 2.9 0.0599 4.37 0.15 1.63 2.6 3.39 5.8199 1.4 8.7799-0.85 3.3301-5.6 4.63-7.63 1.66-2.12-2.2699-1.22-5.4499-0.44-8.0699z" fill="#4591C6" stroke="#4591C6" stroke-width=".0938"/>
	<path d="m1610.6 1071.6c0.87 0.01 1.77 0.04 2.6899 0.08-0.01 0.4701-0.0199 1.41-0.0299 1.88l1.2-0.3899c-1.48 1.84-2.48 3.98-3.37 6.1599-0.91-0.3099-1.79-0.58-2.66-0.8199-0.09-1.51-0.0699-2.99-0.14-4.47 0.16 1.26 0.4801 2.49 0.9701 3.71 0.2799-2.0901 0.51-4.2 1.3399-6.1501z" fill="#4591C6" stroke="#4591C6" stroke-width=".0938"/>
	<path d="m1001.5 1084.1c-0.43-3.4-0.72-7.36 2.16-9.78 0.95-0.04 2.86-0.12 3.82-0.16 3.29 2.99 3.38 9.3101-0.47 11.9-1.98 1.19-4.62 0.03-5.51-1.96z" fill="#4591C6" stroke="#4591C6" stroke-width=".0938"/>
	<path d="m1627 1075.7c0.75 0.4301 1.5299 0.88 2.33 1.33-0.72 2.0801-1.41 4.1801-2.1801 6.25-0.8999 0.01-1.7799 0.03-2.6299 0.0701-0.31-2.8701 0.67-5.4701 2.48-7.6501z" fill="#4591C6" stroke="#4591C6" stroke-width=".0938"/>
	<path d="m1046.6 1080.3c0.9701 0 2.9-0.01 3.86-0.01 2.26 2.73 3.1001 6.9399 0.77 9.9-1.62 2.8099-6.5599 1.99-7.09-1.28-1.54-3.1899 0.4399-6.26 2.46-8.61z" fill="#4591C6" stroke="#4591C6" stroke-width=".0938"/>
	<path d="m1640.6 1081.5c1.01-0.01 2.04-0.02 3.09-0.01-0.27 1.99-0.9 3.91-1.59 5.8-0.5 0.15-1.5 0.4299-1.99 0.58-0.76-2.14 0.03-4.2899 0.49-6.37z" fill="#4591C6" stroke="#4591C6" stroke-width=".0938"/>
	<path d="m1654.8 1084.8c0.84-0.01 1.6899-0.02 2.5599-0.04 0.4701 2.87 0.1801 6.25-3 7.35-0.0399-2.45 0.1501-4.89 0.4401-7.31z" fill="#4591C6" stroke="#4591C6" stroke-width=".0938"/>
	<path d="m1086.5 1096.8c-2.3201-3.85-1.73-9.4199 2.4199-11.77 1.7201 1.0099 3.29 2.2699 4.6901 3.72 0.13 2.85-0.72 5.53-2.4 7.83-1.58 0.0499-3.15 0.1199-4.71 0.2199z" fill="#4591C6" stroke="#4591C6" stroke-width=".0938"/>
	<path d="m1666.9 1094.4c0.4199-2.61 1.99-4.63 4.21-5.9601 0.21 1.29-0.41 3.0901 1.25 3.7001-0.4399 0.11-1.33 0.3099-1.77 0.41-0.5699 1.6699-1.09 3.34-1.59 5.0399-0.1899-0.63-0.36-1.24-0.5-1.83-0.5601-0.4699-1.09-0.9199-1.6-1.3599z" fill="#4591C6" stroke="#4591C6" stroke-width=".0938"/>
	<path d="m1126.6 1091.2c1.53 0.13 3.0801 0.27 4.65 0.42 1.3 2.8099 0.9301 5.84 0.21 8.76-1.36 0.99-2.6799 2.49-4.5499 2.03-0.91-0.67-1.78-1.36-2.61-2.0701-0.1501-3.2499-0.1201-6.6698 2.2999-9.1399z" fill="#4591C6" stroke="#4591C6" stroke-width=".0938"/>
	<path d="m1680.6 1100.6c-0.67-3.1899 0.4399-6.0499 2.74-8.2699 0.1 2.0199 0.13 4.0599 0.1 6.1-0.98 0.7-1.9 1.44-2.84 2.1699z" fill="#4591C6" stroke="#4591C6" stroke-width=".0938"/>
	<path d="m1163.6 1096.4c1.03-0.0801 3.0901-0.24 4.12-0.3301 1.91 3.98 1.7101 9.64-2.7 11.85-4.6299-2.3599-3.7499-7.7899-1.42-11.52z" fill="#4591C6" stroke="#4591C6" stroke-width=".0938"/>
	<path d="m1694.8 1097.4c0.36 0.04 1.0801 0.1201 1.4401 0.16-0.0701 1.8301-0.11 3.6801-0.14 5.54-1.2 0.1-2.39 0.2-3.53 0.34 0.0601-1.13 0.13-2.24 0.27-3.33 0.7499-0.83 1.3999-1.7399 1.9599-2.71z" fill="#4591C6" stroke="#4591C6" stroke-width=".0938"/>
	<path d="m1703.5 1105.9c1.49-2.01 2.5701-4.27 3.66-6.51 0.84 2.58 1.26 5.34-0.03 7.88-0.8199 0-1.61 0.01-2.36 0.05-0.02-0.4601-0.05-1.38-0.0601-1.8401l-1.2099 0.4201z" fill="#4591C6" stroke="#4591C6" stroke-width=".0938"/>
	<path d="m1198.5 1102.7c0.75-2.08 3.3101-1.1499 4.97-1.46 1.8101 3.39 1.4301 7.58-1.09 10.51-0.9199-0.04-2.77-0.12-3.6899-0.16-1.3801-2.76-1.73-6.13-0.1901-8.89z" fill="#4591C6" stroke="#4591C6" stroke-width=".0938"/>
	<path d="m1716.7 1104.7c0.9299-0.1 1.8999-0.1799 2.89-0.25-0.1901 1.0701-0.3501 2.15-0.4901 3.25-0.8999 1.3-1.6699 2.6901-2.4099 4.0901-0.2201-2.3702-0.24-4.7402 0.01-7.0901z" fill="#4591C6" stroke="#4591C6" stroke-width=".0938"/>
	<path d="m1726.9 1110.3c1.01-1.2201 1.76-2.62 2.4401-4.05 0.24 2.46 0.6699 5.09-1.12 7.12-0.41 0.03-1.2301 0.09-1.63 0.12 0.0699-1.08 0.1799-2.14 0.3099-3.19z" fill="#4591C6" stroke="#4591C6" stroke-width=".0938"/>
	<path d="m1232.5 1106.5c1.72-0.12 3.47-0.21 5.22-0.27 0 3 0.4701 6.14-0.48 9.0601-1.59 0.41-3.2 0.55-4.83 0.42-0.23-3.0801-0.2101-6.1601 0.09-9.2101z" fill="#4591C6" stroke="#4591C6" stroke-width=".0938"/>
	<path d="m1739 1109.2c0.3301 1.2799 0.77 2.5499 1.05 3.87 1.02 2.39-1.98 3.1499-3.28 4.46 0.04-1.09 0.12-2.17 0.23-3.24 1.15-1.49 1.73-3.25 2-5.09z" fill="#4591C6" stroke="#4591C6" stroke-width=".0938"/>
	<path d="m1264.3 1112.7c1.2999-1.6899 3.0299-2.88 5.2799-2.6799 1.54 3.1 1.25 6.6899-0.1599 9.7899-1.66 0.1-3.23-0.13-4.7001-0.6799-0.64-2.0902-0.3199-4.3001-0.4199-6.4301z" fill="#4591C6" stroke="#4591C6" stroke-width=".0938"/>
	<path d="m1747.8 1114.6c0.79-0.0601 1.61-0.11 2.45-0.14-0.0399 1.54-0.0499 3.1-0.0299 4.67-0.9501 0.09-1.87 0.2-2.76 0.33 0.0899-1.63 0.2199-3.25 0.3399-4.86z" fill="#4591C6" stroke="#4591C6" stroke-width=".0938"/>
	<path d="m1296.5 1115.7c0.51-1.9 3.5599-2.0399 4.34-0.4 1.6 2.4 0.5601 5.42-0.4299 7.87-0.64 0.41-1.9301 1.2301-2.5801 1.64-3.07-1.98-2.84-6.23-1.33-9.11z" fill="#4591C6" stroke="#4591C6" stroke-width=".0938"/>
	<path d="m1327.8 1118.5c0.67-0.05 2.01-0.14 2.6801-0.1901 0.16 3.1801 0.53 6.53-0.96 9.49-1.01-0.1-3.02-0.2899-4.02-0.39 0.1799-2.9599-1.4001-7.5899 2.2999-8.9099z" fill="#4591C6" stroke="#4591C6" stroke-width=".0938"/>
	<path d="m1354.6 1131.5c-2.26-3.28-1.34-10.4 3.9399-9.22 0.0701 2.34 0.15 4.6899 0.2401 7.0499-0.91 1.5201-2.2 2.9801-4.18 2.1701z" fill="#4591C6" stroke="#4591C6" stroke-width=".0938"/>
	<path d="m1380.4 1133.2c-0.1901-2.74 0.5499-5.48 2.48-7.49 1.5699-0.89 2.8199 1 3.1799 2.2999 0.8 3.05-0.71 6.13-3.0199 8.0901-0.89-0.9899-1.77-1.95-2.64-2.9z" fill="#4591C6" stroke="#4591C6" stroke-width=".0938"/>
	<path d="m1407.8 1138.8c-1.9501-3-1.8101-7.0399 0.9099-9.5299 4.25-0.64 2.65 4.4299 2.98 7.0199-1.03 1.2399-2.25 2.26-3.8899 2.51z" fill="#4591C6" stroke="#4591C6" stroke-width=".0938"/>
	<path d="m1432.2 1134.1c0.74-1.67 4-1.35 4.13 0.78 0.33 2.53-0.05 7.08-3.55 6.87-2.0699-1.92-1.51-5.3301-0.58-7.65z" fill="#4591C6" stroke="#4591C6" stroke-width=".0938"/>
	<path d="m1456.7 1135.8c0.5499 0.01 1.6399 0.02 2.1899 0.03 0.4401 0.45 0.9 0.9199 1.38 1.4 0.27 2.8899-0.66 5.6-2.13 8.0599-0.73-0.04-1.4399-0.05-2.11-0.04-0.6801-1.1899-1.38-2.38-2.03-3.5299 0.6-2.1099 1.41-4.14 2.7001-5.92z" fill="#4591C6" stroke="#4591C6" stroke-width=".0938"/>
	<path d="m1478.5 1139.5c1-0.0699 2.01-0.13 3.04-0.1699 1.0699 3.0599 1.0199 8.34-3.2101 8.6-1.16-2.7501-0.8999-5.7202 0.1701-8.4301z" fill="#4591C6" stroke="#4591C6" stroke-width=".0938"/>
	<path d="m1501 1151c-2.3-2.2001-2.28-6.4301-0.3199-8.8 5.0699-0.0601 2.6699 6.65 0.3199 8.8z" fill="#4591C6" stroke="#4591C6" stroke-width=".0938"/>
	<path d="m1520.6 1145.4c1.0299-0.02 2.0599-0.03 3.12-0.03-0.02 2.03 0.1599 4.1-0.2001 6.13-0.49 1.15-2.03 0.9401-2.99 1.4-1.1299-2.4501-0.6698-5.04 0.0701-7.5z" fill="#4591C6" stroke="#4591C6" stroke-width=".0938"/>
	<path d="m1539.8 1148.9c0.9299-1.12 2.58-0.27 3.85-0.4501-0.12 2.11-0.5 4.21-1.27 6.2001-1.04-0.04-2.05-0.0801-3.05-0.1001 0.0799-1.8999 0.1099-3.8 0.47-5.6499z" fill="#4591C6" stroke="#4591C6" stroke-width=".0938"/>
	<path d="m1558.4 1150.5c1.0599-0.0699 2.13-0.13 3.22-0.1699 0 2.36-0.03 4.74-0.12 7.12-1.05 0.0399-2.0801 0.09-3.1 0.1499-0.07-2.38-0.07-4.75 0-7.1z" fill="#4591C6" stroke="#4591C6" stroke-width=".0938"/>
	<path d="m1715.4 1171.2c1.0599-0.0699 2.13-0.13 3.22-0.1699 0 2.36-0.03 4.74-0.12 7.12-1.05 0.0399-2.0801 0.09-3.1 0.1499-0.07-2.38-0.07-4.75 0-7.1z" fill="#4591C6" stroke="#4591C6" stroke-width=".0938"/>
	<path d="m1727.2 1172.2c1.0599-0.0699 2.13-0.13 3.22-0.1699 0 2.36-0.03 4.74-0.12 7.12-1.05 0.0399-2.0801 0.09-3.1 0.1499-0.07-2.38-0.07-4.75 0-7.1z" fill="#4591C6" stroke="#4591C6" stroke-width=".0938"/>
	<path d="m1748.4 1175.7c1.0599-0.0699 2.13-0.13 3.22-0.1699 0 2.36-0.03 4.74-0.12 7.12-1.05 0.0399-2.0801 0.09-3.1 0.1499-0.07-2.38-0.07-4.75 0-7.1z" fill="#4591C6" stroke="#4591C6" stroke-width=".0938"/>
	<path d="m1758.7 1176.5c1.0599-0.0699 2.13-0.13 3.22-0.1699 0 2.36-0.03 4.74-0.12 7.12-1.05 0.0399-2.0801 0.09-3.1 0.1499-0.07-2.38-0.07-4.75 0-7.1z" fill="#4591C6" stroke="#4591C6" stroke-width=".0938"/>
	<path d="m1576.6 1152.6c0.95-0.02 1.9199-0.0299 2.9-0.02 0.01 1.9601 0.0299 3.9301 0.0699 5.92-1.1801 0.11-2.33 0.24-3.48 0.37 0.1301-2.1 0.3101-4.19 0.5101-6.27z" fill="#4591C6" stroke="#4591C6" stroke-width=".0938"/>
	<path d="m1593.8 1154.7c0.86-0.04 1.74-0.08 2.63-0.11 0.1801 2.64 0.24 5.36-0.9301 7.8099-0.47 0-1.4199 0.01-1.8899 0.01-0.15-2.5899-0.09-5.1599 0.19-7.7099z" fill="#4591C6" stroke="#4591C6" stroke-width=".0938"/>
	<path d="m1609.6 1164.4c0.1699-2.3099-1.29-8.09 2.76-6.71 0.2899 2.23 0.0399 4.48-0.12 6.73-0.9-0.03-1.78-0.04-2.64-0.02z" fill="#4591C6" stroke="#4591C6" stroke-width=".0938"/>
	<path d="m1625.3 1165.6c-0.14-2.67 0.2999-5.3 1.83-7.52 1.01 2.4401 1.53 5.0601 0.4299 7.59-0.57-0.02-1.7-0.05-2.2599-0.07z" fill="#4591C6" stroke="#4591C6" stroke-width=".0938"/>
	<path d="m1639.8 1162.6c0.9399-0.12 1.9099-0.2201 2.8999-0.3101-0.09 1.78-0.1499 3.58-0.1899 5.38-0.96-0.04-1.89-0.0699-2.8-0.08 0.02-1.6699 0.04-3.3399 0.09-4.9899z" fill="#4591C6" stroke="#4591C6" stroke-width=".0938"/>
	<path d="m1654.8 1164.2c0.26-0.9701 1.3199-1.9501 2.3099-1.1901 0.51 1.9501 0.29 3.99 0.3101 6.01-1.01 0.49-1.95 1.04-2.87 1.63-0.02-2.1599-0.23-4.3499 0.25-6.4499z" fill="#4591C6" stroke="#4591C6" stroke-width=".0938"/>
	<path d="m1668.7 1164.7c3.7101-0.0499 2.1001 4.5901 1.4401 6.74-0.84 0-1.65 0.01-2.4401 0.04 0.1801-2.26-0.5399-4.88 1-6.78z" fill="#4591C6" stroke="#4591C6" stroke-width=".0938"/>
	<path d="m1681.5 1167.5c0.5 0 1.52 0 2.02 0.01-0.04 1.61-0.0601 3.24-0.0701 4.89-0.5399 0.08-1.63 0.26-2.1699 0.34 0.05-1.76 0.12-3.51 0.22-5.24z" fill="#4591C6" stroke="#4591C6" stroke-width=".0938"/>
	<path d="m1693.9 1175.7c-0.5699-2.83-0.5-5.73 1.01-8.25 0.4 0.5801 0.8199 1.17 1.27 1.78-0.03 1.1901-0.04 2.4-0.02 3.63-0.78 0.92-1.53 1.87-2.26 2.84z" fill="#4591C6" stroke="#4591C6" stroke-width=".0938"/>
	<path d="m1704.7 1171.9c1.4301-0.3199 1.9601-1.6299 2.5901-2.7899 0.1699 2.1899 0.22 4.4 0.0299 6.62-0.49 0.45-0.95 0.9299-1.37 1.4399-0.3999-0.5299-0.7799-1.0399-1.12-1.5299-0.08-1.27-0.13-2.52-0.13-3.7401z" fill="#4591C6" stroke="#4591C6" stroke-width=".0938"/>
	<path d="m1739 1173.2c0.95 2.6 1.4301 5.41 0.09 8-0.2799-0.01-0.86-0.01-1.14-0.01-0.1899-0.88-0.46-1.6899-0.8099-2.4399 0.7699-1.7901 1.3499-3.6701 1.8599-5.5501z" fill="#4591C6" stroke="#4591C6" stroke-width=".0938"/>
	<path d="m0 1168.3c9.98-0.42 19.96-0.6801 29.96-0.54 32.01 0.02 64.02-0.02 96.03 0.03 8.36-0.1801 16.71 0.5699 25.06-0.02 8.3 0.16 16.61 0.54 24.9-0.01 27.34 0.28 54.69-0.35 82.01 0.37 13.65-0.53 27.34-0.6 40.97 0.14 9.35-0.7 18.72-0.4399 28.08-0.4 8.32 1.05 16.66-0.8199 25 0.1 6.99 0.8201 13.98-0.6399 20.99-0.1799 7.98 0.49 15.98-0.05 23.96 0.2 7.34 0.8 14.68-0.46 22.03-0.08 13.01 0.86 26.04-0.1 39.04 0.1 4.33 0.49 8.67 0.16 13-0.08 16.17 0.71 32.37-0.17 48.54 0.35 0.34 19.48-0.44 38.99 0.38 58.46 203.35 0.22 406.7-0.0699 610.04 0.0801 109.01-0.0701 218 0.1599 327-0.01 107.26-0.0601 214.53 0.1 321.8-0.0801 2.1699-5.89 3.73-11.97 5.4199-18 4.15-13.58 8.1901-27.19 11.53-40.99 35.77 0.05 71.56-0.02 107.33 0.0601 5.62 0.63 11.28 0.34 16.93 0.4v304.82h-1920v-304.72z" fill="#1A124E" stroke="#1A124E" stroke-width=".0938"/>
	<path d="m1769.2 1186.2c-6.45 0-6.45-10 0-10s6.45 10 0 10z" fill="#BD2525"/>

</svg>
