<?xml version="1.0" encoding="utf-8"?>
<!-- Generator: Adobe Illustrator 25.0.1, SVG Export Plug-In . SVG Version: 6.00 Build 0)  -->
<svg version="1.0" id="katman_1" xmlns="http://www.w3.org/2000/svg" xmlns:xlink="http://www.w3.org/1999/xlink" x="0px" y="0px"
	 viewBox="0 0 491.3 348.9" style="enable-background:new 0 0 491.3 348.9;" xml:space="preserve">
<style type="text/css">
	.st0{fill:#393939;}
	.st1{fill:#654FF0;}
</style>
<g id="Layer_2">
	<g id="Notch_-_Purple">
		<g>
			<path class="st0" d="M121.1,252.6h-4.6l-4.3-15.2c-0.2-0.7-0.4-1.6-0.7-2.9c-0.3-1.3-0.4-2.1-0.5-2.6c-0.1,0.7-0.3,1.7-0.6,2.9
				c-0.3,1.2-0.5,2.1-0.7,2.7l-4.2,15.2H101l-3.3-12.8l-3.4-12.8h4.3l3.7,14.9c0.5,2.1,0.9,4.2,1.2,6.3c0.1-1,0.3-2.1,0.6-3.3
				s0.5-2.2,0.7-3l4.2-14.9h4.1l4.3,15c0.5,2,1,4.1,1.3,6.2c0.3-2.1,0.7-4.2,1.3-6.3l3.6-14.9h4.2L121.1,252.6z"/>
			<path class="st0" d="M149,252.6h-14.4v-25.6H149v3.5h-10.3v7h9.6v3.5h-9.6v8H149V252.6z"/>
			<path class="st0" d="M157.8,227.1h7.6c3.5,0,6.1,0.5,7.6,1.5c1.6,1.1,2.5,2.9,2.3,4.9c0,1.3-0.4,2.6-1.1,3.7
				c-0.8,1-2,1.7-3.3,1.9v0.2c1.5,0.2,2.9,0.9,4,2c0.9,1.1,1.3,2.6,1.3,4c0.1,2.1-0.8,4.1-2.4,5.4c-1.9,1.4-4.3,2.1-6.7,1.9h-9.3
				V227.1z M161.9,237.6h4c1.3,0.1,2.7-0.2,3.8-0.8c0.9-0.7,1.3-1.8,1.2-2.8c0.1-1-0.4-2-1.3-2.6c-1.3-0.6-2.7-0.9-4.1-0.8h-3.6
				V237.6z M161.9,241v8.1h4.4c1.4,0.1,2.8-0.2,4-1c0.9-0.8,1.4-2,1.3-3.2c0.1-1.2-0.4-2.3-1.4-3c-1.2-0.7-2.7-1.1-4.1-1L161.9,241z
				"/>
			<path class="st0" d="M203,252.6l-3.2-8.1h-10.2l-3.1,8.1h-3l10.1-25.7h2.5l10.1,25.7L203,252.6z M198.9,241.8l-3-7.9
				c-0.4-1-0.8-2.2-1.2-3.7c-0.3,1.3-0.6,2.5-1.1,3.7l-3,7.9L198.9,241.8z"/>
			<path class="st0" d="M229.3,245.8c0.1,2-0.8,4-2.4,5.3c-1.9,1.4-4.3,2-6.6,1.9c-2.4,0.1-4.8-0.3-7-1.2v-2.9
				c1.1,0.4,2.3,0.8,3.4,1c1.2,0.3,2.4,0.4,3.7,0.4c1.6,0.1,3.1-0.3,4.5-1.1c1-0.7,1.6-1.9,1.5-3.1c0-0.8-0.1-1.5-0.5-2.2
				c-0.5-0.7-1.1-1.2-1.8-1.6c-1.2-0.6-2.5-1.2-3.8-1.6c-1.9-0.6-3.7-1.6-5.1-3c-1.1-1.3-1.6-2.9-1.5-4.6c-0.1-1.8,0.8-3.6,2.2-4.7
				c1.7-1.2,3.8-1.9,5.9-1.8c2.4,0,4.8,0.5,7,1.4l-0.9,2.6c-1.9-0.9-4-1.3-6.1-1.3c-1.3-0.1-2.6,0.3-3.7,1c-0.9,0.7-1.4,1.7-1.3,2.8
				c0,0.8,0.1,1.5,0.5,2.2c0.4,0.6,1,1.2,1.7,1.6c1.1,0.6,2.3,1.2,3.6,1.6c2.1,0.6,3.9,1.6,5.5,3.1
				C228.9,242.7,229.4,244.3,229.3,245.8z"/>
			<path class="st0" d="M254.4,245.8c0.1,2-0.8,4-2.4,5.3c-1.9,1.4-4.3,2-6.6,1.9c-2.4,0.1-4.8-0.3-7-1.2v-2.9
				c1.1,0.4,2.3,0.8,3.4,1c1.2,0.3,2.4,0.4,3.7,0.4c1.6,0.1,3.1-0.3,4.5-1.1c1-0.7,1.6-1.9,1.5-3.1c0-0.8-0.1-1.5-0.5-2.2
				c-0.5-0.7-1.1-1.2-1.8-1.6c-1.2-0.6-2.5-1.2-3.8-1.6c-1.9-0.6-3.7-1.6-5.1-3c-1.1-1.3-1.6-2.9-1.5-4.6c-0.1-1.8,0.8-3.6,2.2-4.7
				c1.7-1.2,3.8-1.9,5.9-1.8c2.4,0,4.8,0.5,7,1.4l-0.9,2.6c-1.9-0.9-4-1.3-6.1-1.3c-1.3-0.1-2.6,0.3-3.7,1c-0.9,0.7-1.4,1.7-1.3,2.8
				c0,0.8,0.1,1.5,0.5,2.2c0.4,0.6,1,1.2,1.6,1.6c1.1,0.6,2.3,1.2,3.6,1.6c2.1,0.6,3.9,1.6,5.5,3.1
				C253.9,242.7,254.4,244.3,254.4,245.8z"/>
			<path class="st0" d="M279.2,252.6H265v-25.6h14.2v2.6h-11.3v8.2h10.6v2.6h-10.6v9.4h11.3L279.2,252.6z"/>
			<path class="st0" d="M301.6,252.6l-8.7-22.7h-0.1c0.2,1.8,0.2,3.9,0.2,6.4v16.3h-2.7v-25.5h4.5l8.1,21.1h0.1l8.1-21.1h4.4v25.6
				h-3v-16.5c0-1.9,0.1-3.9,0.2-6.1h-0.1l-8.7,22.6L301.6,252.6z"/>
			<path class="st0" d="M327.9,227.1h7.2c3.4,0,5.8,0.5,7.4,1.5c1.6,1.1,2.4,2.9,2.3,4.8c0.1,1.4-0.4,2.7-1.3,3.8
				c-1,1.1-2.3,1.7-3.7,1.9v0.2c3.9,0.7,5.8,2.7,5.8,6.1c0.1,2-0.8,4-2.3,5.4c-1.9,1.4-4.2,2.1-6.5,1.9h-8.9L327.9,227.1z
				 M330.9,238h4.9c1.6,0.1,3.2-0.2,4.5-1c1-0.8,1.5-2.1,1.4-3.3c0.1-1.2-0.5-2.4-1.5-3.1c-1.5-0.8-3.2-1.1-4.9-1h-4.4L330.9,238z
				 M330.9,240.5v9.6h5.3c1.6,0.1,3.3-0.3,4.7-1.2c1.1-0.9,1.7-2.3,1.6-3.8c0.1-1.4-0.5-2.7-1.6-3.5c-1.5-0.8-3.2-1.2-4.9-1.1
				L330.9,240.5z"/>
			<path class="st0" d="M356.5,252.6v-25.6h3v22.9h11.3v2.7L356.5,252.6z"/>
			<path class="st0" d="M387,239.8l6.8-12.8h3.2l-8.5,15.6v9.9h-3v-9.8l-8.5-15.8h3.2L387,239.8z"/>
		</g>
		<g id="icon">
			<path class="st1" d="M257.9,95.9c0,0.2,0,0.4,0,0.6c0,6.8-5.5,12.3-12.3,12.3c-6.8,0-12.3-5.5-12.3-12.3c0-0.2,0-0.4,0-0.6h-41.4
				v107.6h107.6V95.9H257.9z M243.1,192l-5.2-25.9h-0.1l-5.7,25.9h-7.2l-8.2-38.1h7.1l4.9,25.9h0.1l5.9-25.9h6.7l5.3,26.2h0.1
				l5.6-26.2h7l-9.1,38.1H243.1z M282.4,192l-2.4-8.5h-12.8l-1.9,8.5h-7.1l9.2-38.1h11.2l11.2,38.1H282.4z"/>
			<polygon class="st1" points="271.6,163.3 268.5,177.3 278.2,177.3 274.6,163.3 			"/>
		</g>
	</g>
</g>
</svg>
